<svg viewBox="0 0 168 168" fill="none" xmlns="http://www.w3.org/2000/svg">
<rect width="168" height="168" rx="14.4" fill="#565CB2"/>
<g clip-path="url(#clip0_150_4998)">
<path d="M101.987 61.5944H96.1704V35.5031C96.1704 33.9243 94.7578 32.5949 93.0128 32.5949H68.0849C66.3399 32.5949 64.9274 33.9243 64.9274 35.5031V61.0127H59.1108V35.5031C59.1108 31.0161 63.1824 27.36 68.0849 27.36H93.0128C97.9984 27.36 101.987 31.0161 101.987 35.5031V61.5944Z" fill="#1E1E1E"/>
<path d="M132.482 50.626H29.2803V121.92H132.482V50.626Z" fill="#1E1E1E"/>
<path d="M120.683 88.101L96.3364 90.5107C86.116 91.5078 75.6462 91.5078 65.4258 90.5107L41.0795 88.101C35.7615 87.6024 31.9393 84.1125 31.6069 79.6255L29.2803 50.626H132.482L130.155 79.6255C129.823 84.1125 126.001 87.6024 120.683 88.101Z" fill="#555555"/>
<path d="M87.196 86.3562H74.6489V101.396H87.196V86.3562Z" fill="#FACE00"/>
</g>
<g clip-path="url(#clip1_150_4998)">
<path d="M152.945 88.5096L110.934 81.6L102.24 134.458L144.252 141.367L152.945 88.5096Z" fill="#9F6D64"/>
<path d="M152.08 93.7669L110.069 86.8573L109.391 90.9779L151.403 97.8876L152.08 93.7669Z" fill="#97635A"/>
<path d="M145.911 131.279L103.899 124.369L103.222 128.49L145.233 135.4L145.911 131.279Z" fill="#97635A"/>
<path d="M115.41 98.8247L117.683 99.1986L116.359 107.25L120.337 107.905L120.026 109.799L113.774 108.771L115.41 98.8247Z" fill="white"/>
<path d="M124.141 107.849L123.01 110.29L120.689 109.908L125.356 100.461L128.293 100.944L129.735 111.396L127.32 110.999L126.983 108.317L124.141 107.849ZM126.979 106.565L126.714 104.332C126.618 103.733 126.6 102.952 126.512 102.305L126.465 102.297C126.229 102.842 125.962 103.576 125.672 104.161L124.753 106.199L126.979 106.565Z" fill="white"/>
<path d="M131.819 111.739L131.087 101.403L133.502 101.8L133.583 106.046C133.625 107.269 133.604 108.579 133.582 109.597L133.63 109.605C133.951 108.539 134.382 107.393 134.869 106.209L136.392 102.276L138.807 102.673L138.919 107.021C138.961 108.244 138.932 109.309 138.895 110.422L138.942 110.43C139.263 109.364 139.695 108.219 140.079 107.066L141.554 103.125L143.828 103.499L139.634 113.024L137.219 112.627L137.067 108.224C137.041 107.198 137.055 106.228 137.1 105.068L137.053 105.06C136.676 106.165 136.378 107.089 135.978 108.045L134.329 112.152L131.819 111.739Z" fill="white"/>
</g>
<g clip-path="url(#clip2_150_4998)">
<path d="M70.8012 140.061L39.5811 123.227L40.6193 119.334L72.5069 133.646C74.3237 134.091 75.399 135.908 74.917 137.725C74.4349 139.505 72.581 140.58 70.8012 140.061Z" fill="#76473E"/>
<path d="M57.7497 131.718H25.9733C23.8228 131.718 22.0801 133.461 22.0801 135.611V140.172H61.6429V135.611C61.6429 133.461 59.9003 131.718 57.7497 131.718Z" fill="#855249"/>
<path d="M33.0184 121.299C33.0184 124.451 32.3139 127.306 31.2387 129.197C30.3488 130.754 29.1993 131.718 27.9387 131.718C25.1207 131.718 22.8589 127.046 22.8589 121.299C22.8589 115.552 25.1578 110.88 27.9387 110.88C29.1993 110.88 30.3488 111.844 31.2387 113.401C32.351 115.292 33.0184 118.147 33.0184 121.299Z" fill="#9C6960"/>
<path d="M37.8382 121.299C37.8382 124.451 37.1338 127.306 36.0585 129.197C35.1686 130.754 34.0192 131.718 32.7585 131.718C29.9405 131.718 27.6787 127.046 27.6787 121.299C27.6787 115.552 29.9405 110.88 32.7585 110.88C34.0192 110.88 35.1686 111.844 36.0585 113.401C37.1708 115.292 37.8382 118.147 37.8382 121.299Z" fill="#855249"/>
<path d="M53.634 129.642H34.9835C33.0925 129.642 31.5352 125.897 31.5352 121.299C31.5352 116.701 33.0925 112.956 34.9835 112.956H53.634C51.743 112.956 50.1857 116.701 50.1857 121.299C50.2228 125.897 51.743 129.642 53.634 129.642Z" fill="#E0B48C"/>
<path d="M55.451 121.299C55.451 124.451 54.7465 127.306 53.6713 129.197C52.7814 130.754 51.6319 131.718 50.3713 131.718C47.5533 131.718 45.2915 127.046 45.2915 121.299C45.2915 115.552 47.5533 110.88 50.3342 110.88C51.5949 110.88 52.7443 111.844 53.6342 113.401C54.7465 115.292 55.451 118.147 55.451 121.299Z" fill="#855249"/>
<path d="M60.2338 121.299C60.2338 124.451 59.5293 127.306 58.454 129.197C57.5641 130.754 56.4147 131.718 55.154 131.718C52.336 131.718 50.0742 127.046 50.0742 121.299C50.0742 115.552 52.3731 110.88 55.154 110.88C56.4147 110.88 57.5641 111.844 58.454 113.401C59.5663 115.292 60.2338 118.147 60.2338 121.299Z" fill="#9C6960"/>
<path d="M60.234 121.299C60.234 124.451 59.5295 127.306 58.4542 129.197C58.1205 129.493 57.7497 129.642 57.3419 129.642C55.4509 129.642 53.8936 125.897 53.8936 121.299C53.8936 116.701 55.4509 112.956 57.3419 112.956C57.7126 112.956 58.0834 113.105 58.4542 113.401C59.5666 115.292 60.234 118.147 60.234 121.299Z" fill="#855249"/>
</g>
<defs>
<clipPath id="clip0_150_4998">
<rect width="103.202" height="94.56" fill="white" transform="translate(29.2798 27.36)"/>
</clipPath>
<clipPath id="clip1_150_4998">
<rect width="42.576" height="53.568" fill="white" transform="translate(110.934 81.6) rotate(9.33981)"/>
</clipPath>
<clipPath id="clip2_150_4998">
<rect width="52.9482" height="29.2921" fill="white" transform="translate(22.0801 110.88)"/>
</clipPath>
</defs>
</svg>
