<svg width="64" height="64" viewBox="0 0 64 64" fill="none" xmlns="http://www.w3.org/2000/svg">
<path d="M16.4297 19.8543C16.4297 22.0804 18.1146 23.7071 20.1931 23.7071C22.2719 23.7071 23.9568 22.0804 23.9568 19.8543C23.9568 17.6286 22.2719 16 20.1931 16C18.1146 16 16.4297 17.6286 16.4297 19.8543Z" stroke="#333333" stroke-width="2.5"/>
<path d="M16.9293 44.7198C16.9293 46.5223 18.3906 47.9836 20.1931 47.9836V47.9836C21.9956 47.9836 23.4569 46.5223 23.4569 44.7198V32.1388C23.4569 30.3363 21.9956 28.8751 20.1931 28.8751V28.8751C18.3906 28.8751 16.9293 30.3363 16.9293 32.1388V44.7198Z" stroke="#333333" stroke-width="2.5"/>
<path opacity="0.4" d="M40.9935 44.7361C40.9935 46.5387 42.4548 48 44.2575 48V48C46.0601 48 47.5214 46.5387 47.5214 44.7361V37.0265C47.5214 30.5136 43.5852 28.2922 39.9427 28.2922C38.0499 28.2922 36.8141 28.9999 35.9824 29.8529C35.5751 30.2707 34.6548 30.0238 34.6548 29.4402V29.4402C34.6548 29.1372 34.4092 28.8915 34.1061 28.8915H31.5159C29.7823 28.8915 28.377 30.2969 28.377 32.0305V44.7361C28.377 46.5387 29.8383 48 31.6409 48V48C33.4435 48 34.9048 46.5387 34.9048 44.7361V38.6535C34.9048 35.5712 35.8036 34.0722 37.7406 34.0722C39.5727 34.0722 40.9935 35.1319 40.9935 38.568V44.7361Z" stroke="#333333" stroke-width="2.5"/>
</svg>
