<svg width="64" height="64" viewBox="0 0 64 64" fill="none" xmlns="http://www.w3.org/2000/svg">
<path opacity="0.4" fill-rule="evenodd" clip-rule="evenodd" d="M18.7159 16.9495C18.2278 16.4613 17.4363 16.4613 16.9481 16.9495C16.46 17.4376 16.46 18.2291 16.9481 18.7173L23.6156 25.3847C24.1037 25.8728 24.8952 25.8728 25.3833 25.3847C25.8715 24.8965 25.8715 24.1051 25.3833 23.6169L18.7159 16.9495ZM28.248 30.3333C28.248 29.1827 29.1808 28.25 30.3314 28.25C31.482 28.25 32.4147 29.1827 32.4147 30.3333C32.4147 31.4839 31.482 32.4167 30.3314 32.4167C29.1808 32.4167 28.248 31.4839 28.248 30.3333ZM30.3314 25.75C27.8001 25.75 25.748 27.802 25.748 30.3333C25.748 32.8646 27.8001 34.9167 30.3314 34.9167C32.8627 34.9167 34.9147 32.8646 34.9147 30.3333C34.9147 27.802 32.8627 25.75 30.3314 25.75Z" fill="#333333"/>
<path fill-rule="evenodd" clip-rule="evenodd" d="M23.0526 15.4266L22.9935 15.4161C21.7817 15.2023 20.7889 15.0271 19.9877 14.9591C19.1685 14.8897 18.3842 14.9137 17.6518 15.2245C16.5582 15.6887 15.6875 16.5594 15.2233 17.653C14.9125 18.3854 14.8885 19.1697 14.9579 19.9889C15.0258 20.7901 15.201 21.7829 15.4149 22.9948L15.4253 23.0538L17.546 35.0711L17.5546 35.1199C17.8238 36.6453 18.038 37.8589 18.2869 38.8348C18.5424 39.8363 18.8546 40.6747 19.3627 41.4277C20.1923 42.6574 21.3506 43.6292 22.7058 44.2325C23.5356 44.6019 24.4155 44.7637 25.4462 44.8412C26.4505 44.9168 27.6828 44.9168 29.2318 44.9168H29.2814H32.3862C31.3875 46.325 31.5191 48.289 32.7808 49.5507C34.1895 50.9593 36.4733 50.9593 37.8819 49.5507L48.7153 38.7174C50.1239 37.3088 50.1239 35.0249 48.7153 33.6163C47.6879 32.5889 46.195 32.3108 44.9156 32.7821V29.2826V29.233C44.9156 27.6841 44.9156 26.4517 44.84 25.4474C44.7625 24.4167 44.6007 23.5368 44.2313 22.707C43.628 21.3519 42.6562 20.1935 41.4265 19.3639C40.6735 18.8559 39.8351 18.5437 38.8336 18.2882C37.8577 18.0392 36.644 17.825 35.1187 17.5559L35.0699 17.5473L23.0526 15.4266ZM36.1886 44.5774C36.1979 44.5686 36.2071 44.5597 36.2161 44.5507L44.5495 36.2173C44.5585 36.2083 44.5674 36.1991 44.5762 36.1898L45.3819 35.384C45.8143 34.9517 46.5152 34.9517 46.9475 35.384C47.3798 35.8164 47.3798 36.5173 46.9475 36.9496L36.1142 47.7829C35.6818 48.2153 34.9809 48.2153 34.5486 47.7829C34.1163 47.3506 34.1163 46.6497 34.5486 46.2174L36.1886 44.5774ZM42.4156 34.8149V29.2826C42.4156 27.673 42.4148 26.5345 42.3471 25.635C42.2806 24.7511 42.1542 24.1883 41.9474 23.7237C41.5346 22.7965 40.8697 22.004 40.0283 21.4363C39.6068 21.152 39.0745 20.9297 38.2156 20.7106C37.3415 20.4876 36.2205 20.2889 34.6354 20.0092L22.6181 17.8885C21.3327 17.6617 20.4517 17.5074 19.7765 17.4502C19.1064 17.3934 18.8051 17.4509 18.6285 17.5259C18.1314 17.7368 17.7356 18.1326 17.5246 18.6297C17.4497 18.8064 17.3922 19.1076 17.449 19.7777C17.5062 20.4529 17.6605 21.3339 17.8873 22.6193L20.008 34.6366C20.2877 36.2217 20.4864 37.3427 20.7094 38.2168C20.9285 39.0757 21.1507 39.608 21.4351 40.0295C22.0027 40.8709 22.7953 41.5358 23.7225 41.9486C24.1871 42.1554 24.7499 42.2818 25.6337 42.3483C26.5333 42.416 27.6717 42.4168 29.2814 42.4168H34.8136L42.4156 34.8149Z" fill="#333333"/>
</svg>
