<svg width="64" height="64" viewBox="0 0 64 64" fill="none" xmlns="http://www.w3.org/2000/svg">
<path opacity="0.4" fill-rule="evenodd" clip-rule="evenodd" d="M35.6443 18.5988C37.5237 17.5617 39.8038 17.5616 41.6833 18.5986C42.4606 19.0275 43.1673 19.7345 44.2024 20.7703L44.349 20.9169L44.4821 21.05C45.4342 22.0014 46.0858 22.6524 46.5008 23.3752C47.5026 25.1198 47.6034 27.2399 46.7716 29.0717C46.427 29.8306 45.8402 30.5405 44.9826 31.5779L44.8627 31.723L44.2516 32.4627C44.6288 32.4935 44.9663 32.5446 45.283 32.6295C47.4398 33.2074 49.1245 34.8921 49.7024 37.0489C49.9162 37.8466 49.9159 38.7769 49.9154 40.1402V40.1402L49.9154 40.3332V41.1665V41.2109C49.9154 42.3381 49.9154 43.2474 49.8649 43.9874C49.813 44.7483 49.7035 45.4212 49.4396 46.0583C48.8053 47.5897 47.5886 48.8064 46.0571 49.4408C45.42 49.7047 44.7472 49.8141 43.9862 49.866C43.2462 49.9165 42.3369 49.9165 41.2096 49.9165H41.1654H25.332C24.6417 49.9165 24.082 49.3569 24.082 48.6665C24.082 47.9762 24.6417 47.4165 25.332 47.4165L41.1654 47.4165C42.3473 47.4165 43.1712 47.4158 43.8161 47.3718C44.4497 47.3286 44.8187 47.2477 45.1004 47.1311C46.0193 46.7505 46.7493 46.0204 47.1299 45.1016C47.2466 44.8198 47.3275 44.4508 47.3707 43.8172C47.4147 43.1723 47.4154 42.3485 47.4154 41.1665V40.3332C47.4154 38.7027 47.4046 38.1327 47.2876 37.6959C46.9408 36.4018 45.93 35.391 44.6359 35.0443C44.2199 34.9328 43.6831 34.9178 42.2245 34.9166L32.9617 46.1294C32.5221 46.6616 31.7342 46.7367 31.2019 46.297C30.6697 45.8573 30.5947 45.0694 31.0343 44.5372L42.9353 30.1308C43.9587 28.892 44.3064 28.454 44.4953 28.038C44.9944 26.939 44.9339 25.6669 44.3328 24.6201C44.1053 24.2239 43.7176 23.8209 42.5813 22.6848C41.3426 21.4462 40.9012 21.0223 40.4756 20.7875C39.3479 20.1653 37.9798 20.1654 36.8522 20.7877C36.4266 21.0225 35.9852 21.4464 34.7466 22.6851L32.882 24.5499C32.3938 25.038 31.6024 25.0381 31.1142 24.5499C30.626 24.0618 30.626 23.2703 31.1141 22.7822L32.9788 20.9174L33.1253 20.7708C34.1604 19.7349 34.867 19.0278 35.6443 18.5988ZM25.3314 40.3333C25.3314 41.2537 24.5852 41.9999 23.6647 41.9999C22.7442 41.9999 21.998 41.2537 21.998 40.3333C21.998 39.4128 22.7442 38.6666 23.6647 38.6666C24.5852 38.6666 25.3314 39.4128 25.3314 40.3333Z" fill="#333333"/>
<path fill-rule="evenodd" clip-rule="evenodd" d="M23.2805 14.0834L23.334 14.0834H24.0006L24.0542 14.0834C25.4089 14.0834 26.5016 14.0834 27.3864 14.1556C28.2975 14.2301 29.0977 14.3873 29.8381 14.7646C31.0141 15.3638 31.9702 16.3199 32.5694 17.4959C32.9467 18.2363 33.1039 19.0365 33.1784 19.9476C33.2507 20.8324 33.2507 21.9251 33.2507 23.2798V23.3334V48.6667C33.2507 49.3571 32.691 49.9167 32.0007 49.9167H23.334H23.2804C21.9257 49.9167 20.833 49.9167 19.9482 49.8444C19.0371 49.77 18.2369 49.6127 17.4965 49.2355C16.3205 48.6363 15.3644 47.6802 14.7652 46.5041C14.388 45.7638 14.2307 44.9635 14.1563 44.0525C14.084 43.1676 14.084 42.0749 14.084 40.7202L14.084 40.6667V23.3334L14.084 23.2799C14.084 21.9251 14.084 20.8324 14.1563 19.9476C14.2307 19.0365 14.388 18.2363 14.7652 17.4959C15.3644 16.3199 16.3205 15.3638 17.4965 14.7646C18.2369 14.3873 19.0371 14.2301 19.9482 14.1556C20.8331 14.0834 21.9257 14.0834 23.2805 14.0834ZM20.1518 16.6473C19.3953 16.7091 18.9607 16.8244 18.6315 16.9921C17.9259 17.3516 17.3522 17.9253 16.9927 18.6309C16.825 18.9601 16.7098 19.3947 16.648 20.1512C16.585 20.9222 16.584 21.9126 16.584 23.3334V40.6667C16.584 42.0875 16.585 43.0779 16.648 43.8489C16.7098 44.6054 16.825 45.04 16.9927 45.3692C17.3522 46.0748 17.9259 46.6485 18.6315 47.008C18.9607 47.1757 19.3953 47.2909 20.1518 47.3527C20.9228 47.4157 21.9132 47.4167 23.334 47.4167H30.7507V23.3334C30.7507 21.9126 30.7497 20.9222 30.6867 20.1512C30.6249 19.3947 30.5097 18.9601 30.3419 18.6309C29.9824 17.9253 29.4087 17.3516 28.7031 16.9921C28.3739 16.8244 27.9393 16.7091 27.1829 16.6473C26.4118 16.5843 25.4214 16.5834 24.0006 16.5834H23.334C21.9132 16.5834 20.9228 16.5843 20.1518 16.6473Z" fill="#333333"/>
</svg>
