<svg width="64" height="64" viewBox="0 0 64 64" fill="none" xmlns="http://www.w3.org/2000/svg">
<path opacity="0.4" fill-rule="evenodd" clip-rule="evenodd" d="M20.962 24.6399C21.345 24.0655 22.1211 23.9103 22.6955 24.2932L24.3621 25.4043C27.1126 27.238 28.2743 27.9968 29.4779 28.3594C31.1241 28.8554 32.88 28.8554 34.5263 28.3594C35.7298 27.9968 36.8916 27.238 39.642 25.4043L41.3087 24.2932C41.8831 23.9103 42.6592 24.0655 43.0421 24.6399C43.4251 25.2143 43.2699 25.9904 42.6955 26.3733L41.0288 27.4844C40.9635 27.528 40.8988 27.5711 40.8348 27.6138C38.3377 29.2789 36.8516 30.2698 35.2475 30.7531C33.1309 31.3909 30.8733 31.3909 28.7567 30.7531C27.1525 30.2698 25.6665 29.2789 23.1693 27.6138C23.1053 27.5711 23.0407 27.528 22.9754 27.4844L21.3087 26.3733C20.7343 25.9904 20.5791 25.2143 20.962 24.6399Z" fill="#333333"/>
<path fill-rule="evenodd" clip-rule="evenodd" d="M28.6114 15.75L28.6673 15.75H35.334L35.3899 15.75C37.6761 15.75 39.4685 15.75 40.9091 15.8677C42.376 15.9875 43.5878 16.2356 44.6847 16.7945C46.4879 17.7133 47.954 19.1794 48.8728 20.9826C49.4317 22.0795 49.6798 23.2913 49.7996 24.7582C49.9173 26.1988 49.9173 27.9912 49.9173 30.2774V30.3333V33.6667V33.7226C49.9173 36.0088 49.9173 37.8012 49.7996 39.2418C49.6798 40.7087 49.4317 41.9205 48.8728 43.0174C47.954 44.8206 46.4879 46.2867 44.6847 47.2055C43.5878 47.7644 42.376 48.0125 40.9091 48.1323C39.4685 48.25 37.6761 48.25 35.39 48.25H35.334H28.6673H28.6114C26.3252 48.25 24.5328 48.25 23.0922 48.1323C21.6253 48.0125 20.4135 47.7644 19.3166 47.2055C17.5134 46.2867 16.0473 44.8206 15.1285 43.0174C14.5696 41.9205 14.3215 40.7087 14.2017 39.2418C14.084 37.8012 14.084 36.0088 14.084 33.7226L14.084 33.6667V30.3333L14.084 30.2774C14.084 27.9912 14.084 26.1988 14.2017 24.7582C14.3215 23.2913 14.5696 22.0795 15.1285 20.9826C16.0473 19.1794 17.5134 17.7133 19.3166 16.7945C20.4135 16.2356 21.6253 15.9875 23.0922 15.8677C24.5328 15.75 26.3252 15.75 28.6114 15.75ZM23.2958 18.3594C21.9835 18.4666 21.1373 18.6726 20.4516 19.022C19.1187 19.7011 18.0351 20.7848 17.356 22.1176C17.0066 22.8033 16.8006 23.6495 16.6934 24.9618C16.585 26.2887 16.584 27.9792 16.584 30.3333V33.6667C16.584 36.0208 16.585 37.7113 16.6934 39.0382C16.8006 40.3505 17.0066 41.1967 17.356 41.8824C18.0351 43.2152 19.1187 44.2989 20.4516 44.978C21.1373 45.3274 21.9835 45.5334 23.2958 45.6406C24.6227 45.749 26.3131 45.75 28.6673 45.75H35.334C37.6882 45.75 39.3786 45.749 40.7055 45.6406C42.0178 45.5334 42.864 45.3274 43.5497 44.978C44.8826 44.2989 45.9662 43.2152 46.6453 41.8824C46.9947 41.1967 47.2007 40.3505 47.3079 39.0382C47.4163 37.7113 47.4173 36.0208 47.4173 33.6667V30.3333C47.4173 27.9792 47.4163 26.2887 47.3079 24.9618C47.2007 23.6495 46.9947 22.8033 46.6453 22.1176C45.9662 20.7848 44.8826 19.7011 43.5497 19.022C42.864 18.6726 42.0178 18.4666 40.7055 18.3594C39.3786 18.251 37.6882 18.25 35.334 18.25H28.6673C26.3131 18.25 24.6227 18.251 23.2958 18.3594Z" fill="#333333"/>
</svg>
