<svg width="64" height="64" viewBox="0 0 64 64" fill="none" xmlns="http://www.w3.org/2000/svg">
<path fill-rule="evenodd" clip-rule="evenodd" d="M22.4689 21.8738C23.0282 22.2785 23.1536 23.0599 22.749 23.6192L21.6502 25.138C20.4218 26.836 19.9087 27.5541 19.5739 28.2631C18.4569 30.6287 18.4569 33.37 19.5739 35.7356C19.9087 36.4446 20.4218 37.1627 21.6502 38.8607L22.749 40.3795C23.1536 40.9388 23.0282 41.7203 22.4689 42.1249C21.9096 42.5296 21.1281 42.4042 20.7235 41.8448L19.6247 40.326L19.5374 40.2054C18.4221 38.6639 17.7597 37.7484 17.3133 36.8031C15.8771 33.7616 15.8771 30.2371 17.3133 27.1956C17.7597 26.2503 18.4221 25.3348 19.5374 23.7934C19.5662 23.7536 19.5953 23.7133 19.6247 23.6727L20.7235 22.1539C21.1281 21.5946 21.9096 21.4692 22.4689 21.8738Z" fill="#333333"/>
<path fill-rule="evenodd" clip-rule="evenodd" d="M41.5311 21.8738C40.9718 22.2785 40.8464 23.0599 41.251 23.6192L42.3498 25.138C43.5782 26.836 44.0913 27.5541 44.4261 28.2631C45.5431 30.6287 45.5431 33.37 44.4261 35.7356C44.0913 36.4446 43.5782 37.1627 42.3498 38.8607L41.251 40.3795C40.8464 40.9388 40.9718 41.7203 41.5311 42.1249C42.0904 42.5296 42.8719 42.4042 43.2765 41.8448L44.3753 40.326L44.4626 40.2054C45.5779 38.6639 46.2403 37.7484 46.6867 36.8031C48.1229 33.7616 48.1229 30.2371 46.6867 27.1956C46.2403 26.2503 45.5779 25.3348 44.4626 23.7934C44.4338 23.7536 44.4047 23.7133 44.3753 23.6727L43.2765 22.1539C42.8719 21.5946 42.0904 21.4692 41.5311 21.8738Z" fill="#333333"/>
<path opacity="0.4" d="M36 20L27.832 43.6665" stroke="#333333" stroke-width="2.5" stroke-linecap="round" stroke-linejoin="round"/>
</svg>
