<svg width="64" height="64" viewBox="0 0 64 64" fill="none" xmlns="http://www.w3.org/2000/svg">
<path d="M0.5 8C0.5 3.85786 3.85786 0.5 8 0.5H56C60.1421 0.5 63.5 3.85786 63.5 8V56C63.5 60.1421 60.1421 63.5 56 63.5H8C3.85786 63.5 0.5 60.1421 0.5 56V8Z" stroke="#D1D1D1"/>
<path d="M43.4328 24.7237C43.4328 24.7237 43.025 24.8264 43.0339 24.9402C43.0427 25.054 43.0339 27.6013 43.0339 27.6013C43.0339 27.6013 42.976 27.6547 43.2051 27.6547C43.6125 27.6103 44.0248 27.6853 44.3814 27.8688C44.7382 28.0522 45.0204 28.3344 45.1866 28.6738C45.2715 29.0852 45.2977 29.5047 45.2647 29.9222V41.853H51.2382V22.1733H47.6975C46.5186 23.3164 45.0571 24.1904 43.4328 24.7237Z" fill="#FF0001"/>
<path d="M33.3407 24.7237C33.3407 24.7237 32.9329 24.8264 32.9451 24.9402C32.9574 25.054 32.9451 27.6013 32.9451 27.6013C32.9451 27.6013 32.8833 27.6547 33.1117 27.6547C33.5187 27.6096 33.9309 27.6843 34.2872 27.8679C34.6435 28.0515 34.9249 28.3341 35.0897 28.6738C35.1752 29.0851 35.203 29.5045 35.1726 29.9222V41.853H41.1462V22.1733H37.6007C36.4244 23.3171 34.9642 24.1914 33.3407 24.7237Z" fill="#FF0001"/>
<path d="M23.2478 24.7237C23.2478 24.7237 22.8454 24.8264 22.8522 24.9402C22.859 25.054 22.8522 27.6013 22.8522 27.6013C22.8522 27.6013 22.7944 27.6547 23.0234 27.6547C23.4308 27.6102 23.8432 27.6852 24.1999 27.8686C24.5567 28.0521 24.8389 28.3343 25.0049 28.6738C25.0867 29.0855 25.1147 29.5045 25.0886 29.9222V41.853H31.0628V22.1733H27.5159C26.3366 23.3174 24.8737 24.1915 23.2478 24.7237Z" fill="#FF0001"/>
<path d="M13.1598 24.7237C13.1598 24.7237 12.7581 24.8264 12.7635 24.9402C12.7689 25.054 12.7635 27.6013 12.7635 27.6013C12.7635 27.6013 12.7003 27.6547 12.9375 27.6547C13.344 27.6108 13.7553 27.6862 14.1109 27.8696C14.4665 28.053 14.7476 28.3349 14.9128 28.6738C15.0023 29.0847 15.0302 29.5046 14.9958 29.9222V41.853H20.9734V22.1733H17.4279C16.248 23.3167 14.7853 24.1908 13.1598 24.7237Z" fill="#FF0001"/>
</svg>
