<svg width="64" height="64" viewBox="0 0 64 64" fill="none" xmlns="http://www.w3.org/2000/svg">
<path d="M0.5 8C0.5 3.85786 3.85786 0.5 8 0.5H56C60.1421 0.5 63.5 3.85786 63.5 8V56C63.5 60.1421 60.1421 63.5 56 63.5H8C3.85786 63.5 0.5 60.1421 0.5 56V8Z" stroke="#D1D1D1"/>
<path d="M18.0332 39.4167L20.2332 26.5167H26.3999V40.1833H31.9665V26.5167H37.8665V39.4167H33.7332V42.5833H22.3665V39.4167H18.0332Z" fill="#E94729"/>
<path d="M20.8672 19.4167C20.3138 16.5119 21.5561 13.95 22.1338 13.05H26.3672C26.1005 13.4833 25.4205 14.67 24.8339 15.95C24.1005 17.55 24.5672 20.25 24.6672 21.75C24.7472 22.95 24.345 24.3833 24.1339 24.95H20.3672C21.4672 23.0833 21.4005 22.2167 20.8672 19.4167Z" fill="#E94729"/>
<path d="M29.434 18.75C29.3807 16.6433 30.6785 14.1389 31.334 13.15C32.7207 13.2566 34.5562 13.75 35.3007 13.9833C34.9895 14.3944 34.234 15.4766 33.7007 16.5166C33.034 17.8166 33.0673 18.9166 33.0007 21.1833C32.9473 22.9966 32.2673 24.45 31.934 24.95H28.334C29.4673 22.55 29.5007 21.3833 29.434 18.75Z" fill="#F18E31"/>
<path d="M38.5995 19.5166C39.1328 17.09 40.7773 15.5722 41.5328 15.1166L44.2328 17.5166C42.1995 18.75 41.6995 20.95 41.3995 22.1833C41.1595 23.17 40.2106 24.4166 39.7661 24.9166H36.1328C37.0995 23.8833 37.9328 22.55 38.5995 19.5166Z" fill="#FCDD38"/>
<path d="M42.534 26.45C41.574 27.9433 40.0007 28.85 39.334 29.1166V32.8166C40.4673 32.7166 41.5673 32.2833 43.134 30.45C44.3873 28.9833 45.5007 28.4389 45.9007 28.35V24.0833C45.1784 24.25 43.494 24.9566 42.534 26.45Z" fill="#7BBE4B"/>
<path d="M42.1003 35.1166C41.4869 35.5166 40.0669 35.7277 39.4336 35.7833V38.8833C40.3336 39.0166 42.2669 38.9166 43.6669 37.7833C44.7869 36.8766 45.4891 36.8277 45.7003 36.9166L45.9669 33.3833C44.1003 33.3833 42.8669 34.6166 42.1003 35.1166Z" fill="#0087C1"/>
<path d="M41.6999 47.9833V41.0833H35.5332V48.45H25.5332V50.95H37.5999V47.9833H41.6999Z" fill="#0087C1"/>
</svg>
