<svg width="40" height="40" viewBox="0 0 40 40" fill="none" xmlns="http://www.w3.org/2000/svg">
<path d="M16 18.6875L18.6875 15.9688L16.9375 14.1875L15.5625 15.5625L13.8125 13.8125L15.1562 12.4375L13.75 11.0312L11.0312 13.75L16 18.6875ZM26.25 28.9688L28.9688 26.25L27.5625 24.8438L26.1875 26.1875L24.4375 24.4375L25.7812 23.0625L24 21.3125L21.3125 24L26.25 28.9688ZM14.0625 31.25H8.75V25.9375L14.2188 20.4688L7.5 13.75L13.75 7.5L20.5 14.25L25.2188 9.5C25.4688 9.25 25.75 9.0625 26.0625 8.9375C26.375 8.8125 26.6979 8.75 27.0312 8.75C27.3646 8.75 27.6875 8.8125 28 8.9375C28.3125 9.0625 28.5938 9.25 28.8438 9.5L30.5 11.1875C30.75 11.4375 30.9375 11.7188 31.0625 12.0312C31.1875 12.3438 31.25 12.6667 31.25 13C31.25 13.3333 31.1875 13.651 31.0625 13.9531C30.9375 14.2552 30.75 14.5312 30.5 14.7812L25.7812 19.5312L32.5 26.25L26.25 32.5L19.5312 25.7812L14.0625 31.25ZM11.25 28.75H13L25.25 16.5312L23.4688 14.75L11.25 27V28.75ZM24.375 15.6562L23.4688 14.75L25.25 16.5312L24.375 15.6562Z" fill="#C9CAC9"/>
</svg>
