<svg width="33" height="32" viewBox="0 0 33 32" fill="none" xmlns="http://www.w3.org/2000/svg">
<path d="M12.2023 24H20.4603V21C20.4603 19.9 20.056 18.9583 19.2474 18.175C18.4388 17.3917 17.4668 17 16.3313 17C15.1958 17 14.2238 17.3917 13.4152 18.175C12.6066 18.9583 12.2023 19.9 12.2023 21V24ZM8.07324 26V24H10.1378V21C10.1378 19.9833 10.3829 19.0292 10.8732 18.1375C11.3636 17.2458 12.0474 16.5333 12.9249 16C12.0474 15.4667 11.3636 14.7542 10.8732 13.8625C10.3829 12.9708 10.1378 12.0167 10.1378 11V8H8.07324V6H24.5894V8H22.5249V11C22.5249 12.0167 22.2797 12.9708 21.7894 13.8625C21.299 14.7542 20.6152 15.4667 19.7378 16C20.6152 16.5333 21.299 17.2458 21.7894 18.1375C22.2797 19.0292 22.5249 19.9833 22.5249 21V24H24.5894V26H8.07324Z" fill="#C9CAC9"/>
</svg>
