<svg width="40" height="40" viewBox="0 0 40 40" fill="none" xmlns="http://www.w3.org/2000/svg">
<path d="M31.4328 12.7237C31.4328 12.7237 31.025 12.8264 31.0339 12.9402C31.0427 13.054 31.0339 15.6013 31.0339 15.6013C31.0339 15.6013 30.976 15.6547 31.2051 15.6547C31.6125 15.6103 32.0248 15.6853 32.3814 15.8688C32.7382 16.0522 33.0204 16.3344 33.1866 16.6738C33.2715 17.0852 33.2977 17.5047 33.2647 17.9222V29.853H39.2382V10.1733H35.6975C34.5186 11.3164 33.0571 12.1904 31.4328 12.7237Z" fill="#FF0001"/>
<path d="M21.3407 12.7237C21.3407 12.7237 20.9329 12.8264 20.9451 12.9402C20.9574 13.054 20.9451 15.6013 20.9451 15.6013C20.9451 15.6013 20.8833 15.6547 21.1117 15.6547C21.5187 15.6096 21.9309 15.6843 22.2872 15.8679C22.6435 16.0515 22.9249 16.3341 23.0897 16.6738C23.1752 17.0851 23.203 17.5045 23.1726 17.9222V29.853H29.1462V10.1733H25.6007C24.4244 11.3171 22.9642 12.1914 21.3407 12.7237Z" fill="#FF0001"/>
<path d="M11.2478 12.7237C11.2478 12.7237 10.8454 12.8264 10.8522 12.9402C10.859 13.054 10.8522 15.6013 10.8522 15.6013C10.8522 15.6013 10.7944 15.6547 11.0234 15.6547C11.4308 15.6102 11.8432 15.6852 12.1999 15.8686C12.5567 16.0521 12.8389 16.3343 13.0049 16.6738C13.0867 17.0855 13.1147 17.5045 13.0886 17.9222V29.853H19.0628V10.1733H15.5159C14.3366 11.3174 12.8737 12.1915 11.2478 12.7237Z" fill="#FF0001"/>
<path d="M1.1598 12.7237C1.1598 12.7237 0.758066 12.8264 0.763504 12.9402C0.768942 13.054 0.763504 15.6013 0.763504 15.6013C0.763504 15.6013 0.700275 15.6547 0.937505 15.6547C1.34396 15.6108 1.75527 15.6862 2.11086 15.8696C2.46647 16.053 2.74758 16.3349 2.91283 16.6738C3.00227 17.0847 3.03017 17.5046 2.99576 17.9222V29.853H8.97336V10.1733H5.42787C4.24798 11.3167 2.7853 12.1908 1.1598 12.7237Z" fill="#FF0001"/>
</svg>
