<svg width="40" height="40" viewBox="0 0 40 40" fill="none" xmlns="http://www.w3.org/2000/svg">
<path d="M6.0332 27.4166L8.2332 14.5166H14.3999V28.1833H19.9665V14.5166H25.8665V27.4166H21.7332V30.5833H10.3665V27.4166H6.0332Z" fill="#E94729"/>
<path d="M8.86716 7.41647C8.31385 4.51171 9.55605 1.9498 10.1338 1.0498H14.3672C14.1005 1.48314 13.4205 2.6698 12.8339 3.9498C12.1005 5.5498 12.5672 8.2498 12.6672 9.7498C12.7472 10.9498 12.345 12.3831 12.1339 12.9498H8.36719C9.46719 11.0831 9.40052 10.2165 8.86716 7.41647Z" fill="#E94729"/>
<path d="M17.434 6.7499C17.3807 4.64324 18.6785 2.13879 19.334 1.1499C20.7207 1.25657 22.5562 1.7499 23.3007 1.98324C22.9895 2.39435 22.234 3.47657 21.7007 4.51657C21.034 5.81657 21.0673 6.91657 21.0007 9.18324C20.9473 10.9966 20.2673 12.4499 19.934 12.9499H16.334C17.4673 10.5499 17.5007 9.38324 17.434 6.7499Z" fill="#F18E31"/>
<path d="M26.5995 7.5167C27.1328 5.09003 28.7773 3.57225 29.5328 3.1167L32.2328 5.5167C30.1995 6.75003 29.6995 8.95003 29.3995 10.1834C29.1595 11.17 28.2106 12.4167 27.7661 12.9167H24.1328C25.0995 11.8834 25.9328 10.55 26.5995 7.5167Z" fill="#FCDD38"/>
<path d="M30.534 14.4502C29.574 15.9435 28.0007 16.8502 27.334 17.1168V20.8168C28.4673 20.7168 29.5673 20.2835 31.134 18.4502C32.3873 16.9835 33.5007 16.4391 33.9007 16.3502V12.0835C33.1784 12.2502 31.494 12.9568 30.534 14.4502Z" fill="#7BBE4B"/>
<path d="M30.1003 23.1166C29.4869 23.5166 28.0669 23.7277 27.4336 23.7833V26.8833C28.3336 27.0166 30.2669 26.9166 31.6669 25.7833C32.7869 24.8766 33.4891 24.8277 33.7003 24.9166L33.9669 21.3833C32.1003 21.3833 30.8669 22.6166 30.1003 23.1166Z" fill="#0087C1"/>
<path d="M29.6999 35.9835V29.0835H23.5332V36.4502H13.5332V38.9502H25.5999V35.9835H29.6999Z" fill="#0087C1"/>
</svg>
