<svg width="40" height="40" viewBox="0 0 40 40" fill="none" xmlns="http://www.w3.org/2000/svg">
<path d="M20 32.5C18.2917 32.5 16.6771 32.1719 15.1562 31.5156C13.6354 30.8594 12.3073 29.9635 11.1719 28.8281C10.0365 27.6927 9.14062 26.3646 8.48438 24.8438C7.82812 23.3229 7.5 21.7083 7.5 20C7.5 18.2708 7.83854 16.6458 8.51562 15.125C9.19271 13.6042 10.1094 12.2812 11.2656 11.1562C12.4219 10.0312 13.7708 9.14062 15.3125 8.48438C16.8542 7.82812 18.5 7.5 20.25 7.5C21.9167 7.5 23.4896 7.78646 24.9688 8.35938C26.4479 8.93229 27.7448 9.72396 28.8594 10.7344C29.974 11.7448 30.8594 12.9427 31.5156 14.3281C32.1719 15.7135 32.5 17.2083 32.5 18.8125C32.5 21.2083 31.7708 23.0469 30.3125 24.3281C28.8542 25.6094 27.0833 26.25 25 26.25H22.6875C22.5 26.25 22.3698 26.3021 22.2969 26.4062C22.224 26.5104 22.1875 26.625 22.1875 26.75C22.1875 27 22.3438 27.3594 22.6562 27.8281C22.9688 28.2969 23.125 28.8333 23.125 29.4375C23.125 30.4792 22.8385 31.25 22.2656 31.75C21.6927 32.25 20.9375 32.5 20 32.5ZM13.125 21.25C13.6667 21.25 14.1146 21.0729 14.4688 20.7188C14.8229 20.3646 15 19.9167 15 19.375C15 18.8333 14.8229 18.3854 14.4688 18.0312C14.1146 17.6771 13.6667 17.5 13.125 17.5C12.5833 17.5 12.1354 17.6771 11.7812 18.0312C11.4271 18.3854 11.25 18.8333 11.25 19.375C11.25 19.9167 11.4271 20.3646 11.7812 20.7188C12.1354 21.0729 12.5833 21.25 13.125 21.25ZM16.875 16.25C17.4167 16.25 17.8646 16.0729 18.2188 15.7188C18.5729 15.3646 18.75 14.9167 18.75 14.375C18.75 13.8333 18.5729 13.3854 18.2188 13.0312C17.8646 12.6771 17.4167 12.5 16.875 12.5C16.3333 12.5 15.8854 12.6771 15.5312 13.0312C15.1771 13.3854 15 13.8333 15 14.375C15 14.9167 15.1771 15.3646 15.5312 15.7188C15.8854 16.0729 16.3333 16.25 16.875 16.25ZM23.125 16.25C23.6667 16.25 24.1146 16.0729 24.4688 15.7188C24.8229 15.3646 25 14.9167 25 14.375C25 13.8333 24.8229 13.3854 24.4688 13.0312C24.1146 12.6771 23.6667 12.5 23.125 12.5C22.5833 12.5 22.1354 12.6771 21.7812 13.0312C21.4271 13.3854 21.25 13.8333 21.25 14.375C21.25 14.9167 21.4271 15.3646 21.7812 15.7188C22.1354 16.0729 22.5833 16.25 23.125 16.25ZM26.875 21.25C27.4167 21.25 27.8646 21.0729 28.2188 20.7188C28.5729 20.3646 28.75 19.9167 28.75 19.375C28.75 18.8333 28.5729 18.3854 28.2188 18.0312C27.8646 17.6771 27.4167 17.5 26.875 17.5C26.3333 17.5 25.8854 17.6771 25.5312 18.0312C25.1771 18.3854 25 18.8333 25 19.375C25 19.9167 25.1771 20.3646 25.5312 20.7188C25.8854 21.0729 26.3333 21.25 26.875 21.25ZM20 30C20.1875 30 20.3385 29.9479 20.4531 29.8438C20.5677 29.7396 20.625 29.6042 20.625 29.4375C20.625 29.1458 20.4688 28.8021 20.1562 28.4062C19.8438 28.0104 19.6875 27.4167 19.6875 26.625C19.6875 25.75 19.9896 25.0521 20.5938 24.5312C21.1979 24.0104 21.9375 23.75 22.8125 23.75H25C26.375 23.75 27.5521 23.349 28.5312 22.5469C29.5104 21.7448 30 20.5 30 18.8125C30 16.2917 29.0365 14.1927 27.1094 12.5156C25.1823 10.8385 22.8958 10 20.25 10C17.4167 10 15 10.9688 13 12.9062C11 14.8438 10 17.2083 10 20C10 22.7708 10.974 25.1302 12.9219 27.0781C14.8698 29.026 17.2292 30 20 30Z" fill="#C9CAC9"/>
</svg>
