<svg width="40" height="40" viewBox="0 0 40 40" fill="none" xmlns="http://www.w3.org/2000/svg">
<path d="M11.25 31.25C10.5625 31.25 9.97396 31.0052 9.48438 30.5156C8.99479 30.026 8.75 29.4375 8.75 28.75V11.25C8.75 10.5625 8.99479 9.97396 9.48438 9.48438C9.97396 8.99479 10.5625 8.75 11.25 8.75H28.75C29.4375 8.75 30.026 8.99479 30.5156 9.48438C31.0052 9.97396 31.25 10.5625 31.25 11.25V28.75C31.25 29.4375 31.0052 30.026 30.5156 30.5156C30.026 31.0052 29.4375 31.25 28.75 31.25H11.25ZM11.25 28.75H28.75V13.75H11.25V28.75ZM20 26.25C18.2917 26.25 16.7656 25.7865 15.4219 24.8594C14.0781 23.9323 13.1042 22.7292 12.5 21.25C13.1042 19.7708 14.0781 18.5677 15.4219 17.6406C16.7656 16.7135 18.2917 16.25 20 16.25C21.7083 16.25 23.2344 16.7135 24.5781 17.6406C25.9219 18.5677 26.8958 19.7708 27.5 21.25C26.8958 22.7292 25.9219 23.9323 24.5781 24.8594C23.2344 25.7865 21.7083 26.25 20 26.25ZM20 24.375C21.1667 24.375 22.2292 24.099 23.1875 23.5469C24.1458 22.9948 24.8958 22.2292 25.4375 21.25C24.8958 20.2708 24.1458 19.5052 23.1875 18.9531C22.2292 18.401 21.1667 18.125 20 18.125C18.8333 18.125 17.7708 18.401 16.8125 18.9531C15.8542 19.5052 15.1042 20.2708 14.5625 21.25C15.1042 22.2292 15.8542 22.9948 16.8125 23.5469C17.7708 24.099 18.8333 24.375 20 24.375ZM20 23.125C20.5208 23.125 20.9635 22.9427 21.3281 22.5781C21.6927 22.2135 21.875 21.7708 21.875 21.25C21.875 20.7292 21.6927 20.2865 21.3281 19.9219C20.9635 19.5573 20.5208 19.375 20 19.375C19.4792 19.375 19.0365 19.5573 18.6719 19.9219C18.3073 20.2865 18.125 20.7292 18.125 21.25C18.125 21.7708 18.3073 22.2135 18.6719 22.5781C19.0365 22.9427 19.4792 23.125 20 23.125Z" fill="#C9CAC9"/>
</svg>
