<svg width="32" height="32" viewBox="0 0 32 32" fill="none" xmlns="http://www.w3.org/2000/svg">
<path d="M15.9999 8.7999C17.3199 8.7999 18.3999 9.8799 18.3999 11.1999C18.3999 12.5199 17.3199 13.5999 15.9999 13.5999C14.6799 13.5999 13.5999 12.5199 13.5999 11.1999C13.5999 9.8799 14.6799 8.7999 15.9999 8.7999ZM15.9999 20.7999C19.2399 20.7999 22.9599 22.3479 23.1999 23.1999H8.7999C9.0759 22.3359 12.7719 20.7999 15.9999 20.7999ZM15.9999 6.3999C13.3479 6.3999 11.1999 8.5479 11.1999 11.1999C11.1999 13.8519 13.3479 15.9999 15.9999 15.9999C18.6519 15.9999 20.7999 13.8519 20.7999 11.1999C20.7999 8.5479 18.6519 6.3999 15.9999 6.3999ZM15.9999 18.3999C12.7959 18.3999 6.3999 20.0079 6.3999 23.1999V25.5999H25.5999V23.1999C25.5999 20.0079 19.2039 18.3999 15.9999 18.3999Z" fill="#C9CAC9"/>
</svg>
