<svg width="32" height="32" viewBox="0 0 32 32" fill="none" xmlns="http://www.w3.org/2000/svg">
<path d="M14.4135 21.2127L22.4025 13.2236L20.8161 11.6371L14.4135 18.0397L11.1839 14.8101L9.59739 16.3966L14.4135 21.2127ZM16 27.332C14.4324 27.332 12.9592 27.0345 11.5805 26.4396C10.2018 25.8446 9.00246 25.0372 7.98258 24.0174C6.9627 22.9975 6.15529 21.7982 5.56036 20.4194C4.96543 19.0407 4.66797 17.5676 4.66797 16C4.66797 14.4324 4.96543 12.9592 5.56036 11.5805C6.15529 10.2018 6.9627 9.00246 7.98258 7.98258C9.00246 6.9627 10.2018 6.15529 11.5805 5.56036C12.9592 4.96543 14.4324 4.66797 16 4.66797C17.5676 4.66797 19.0407 4.96543 20.4194 5.56036C21.7982 6.15529 22.9975 6.9627 24.0174 7.98258C25.0372 9.00246 25.8446 10.2018 26.4396 11.5805C27.0345 12.9592 27.332 14.4324 27.332 16C27.332 17.5676 27.0345 19.0407 26.4396 20.4194C25.8446 21.7982 25.0372 22.9975 24.0174 24.0174C22.9975 25.0372 21.7982 25.8446 20.4194 26.4396C19.0407 27.0345 17.5676 27.332 16 27.332ZM16 25.0656C18.5308 25.0656 20.6744 24.1873 22.4309 22.4309C24.1873 20.6744 25.0656 18.5308 25.0656 16C25.0656 13.4692 24.1873 11.3255 22.4309 9.56906C20.6744 7.8126 18.5308 6.93437 16 6.93437C13.4692 6.93437 11.3255 7.8126 9.56906 9.56906C7.8126 11.3255 6.93437 13.4692 6.93437 16C6.93437 18.5308 7.8126 20.6744 9.56906 22.4309C11.3255 24.1873 13.4692 25.0656 16 25.0656Z" fill="#05A87A"/>
</svg>
