<svg width="32" height="32" viewBox="0 0 32 32" fill="none" xmlns="http://www.w3.org/2000/svg">
<path d="M15.9897 5.6001C10.2489 5.6001 5.6001 10.2593 5.6001 16.0001C5.6001 21.7409 10.2489 26.4001 15.9897 26.4001C21.7409 26.4001 26.4001 21.7409 26.4001 16.0001C26.4001 10.2593 21.7409 5.6001 15.9897 5.6001ZM16.0001 24.3201C11.4033 24.3201 7.6801 20.5969 7.6801 16.0001C7.6801 11.4033 11.4033 7.6801 16.0001 7.6801C20.5969 7.6801 24.3201 11.4033 24.3201 16.0001C24.3201 20.5969 20.5969 24.3201 16.0001 24.3201ZM16.5201 10.8001H14.9601V17.0401L20.4201 20.3161L21.2001 19.0369L16.5201 16.2601V10.8001Z" fill="#C9CAC9"/>
</svg>
