<svg width="26" height="26" viewBox="0 0 26 26" fill="none" xmlns="http://www.w3.org/2000/svg">
<path d="M2.0625 9.97917C2.0625 7.20807 2.0625 5.82253 2.60179 4.76411C3.07616 3.8331 3.8331 3.07616 4.76411 2.60179C5.82253 2.0625 7.20807 2.0625 9.97917 2.0625H16.0208C18.7919 2.0625 20.1775 2.0625 21.2359 2.60179C22.1669 3.07616 22.9238 3.8331 23.3982 4.76411C23.9375 5.82253 23.9375 7.20807 23.9375 9.97917V16.0208C23.9375 18.7919 23.9375 20.1775 23.3982 21.2359C22.9238 22.1669 22.1669 22.9238 21.2359 23.3982C20.1775 23.9375 18.7919 23.9375 16.0208 23.9375H9.97917C7.20807 23.9375 5.82253 23.9375 4.76411 23.3982C3.8331 22.9238 3.07616 22.1669 2.60179 21.2359C2.0625 20.1775 2.0625 18.7919 2.0625 16.0208V9.97917Z" fill="#001E36"/>
<path d="M6.75 18.0908V8.47142C6.75 8.40598 6.77734 8.36859 6.84115 8.36859C7.78304 8.36859 8.72451 8.3125 9.66667 8.3125C11.1954 8.3125 12.8508 8.83523 13.431 10.4346C13.5677 10.8272 13.6406 11.2292 13.6406 11.6498C13.6406 12.4538 13.4583 13.1175 13.0938 13.641C12.0753 15.1034 10.3102 15.0807 8.72786 15.0807V18.0815C8.74024 18.1703 8.66453 18.2123 8.59115 18.2123H6.85938C6.78646 18.2123 6.75 18.175 6.75 18.0908ZM8.73698 10.1728V13.3138C9.36436 13.3598 10.0209 13.3648 10.6237 13.1643C11.2892 12.9723 11.6536 12.3962 11.6536 11.7059C11.6721 11.1177 11.3516 10.5534 10.806 10.3411C10.2104 10.0934 9.37985 10.0786 8.73698 10.1728Z" fill="#31A8FF"/>
<path d="M19.3255 12.6933C19.0497 12.5479 18.756 12.4416 18.4524 12.3772C18.0622 12.2854 16.5233 11.9638 16.5227 12.7685C16.5363 13.2178 17.2495 13.4378 17.5645 13.5662C18.6707 13.946 19.9224 14.6248 19.8978 15.9894C19.9316 17.6881 18.2857 18.3672 16.8749 18.3674C16.1404 18.375 15.3752 18.2612 14.703 17.946C14.6389 17.912 14.5976 17.8394 14.6003 17.7653V16.1399C14.5931 16.0747 14.663 16.0177 14.7177 16.0646C15.3763 16.4629 16.157 16.6563 16.9189 16.6666C17.2552 16.6666 17.9218 16.634 17.9168 16.1399C17.9168 15.6656 17.1193 15.4476 16.8015 15.3271C16.3407 15.1626 15.9038 14.9348 15.5028 14.6498C14.9423 14.2501 14.5907 13.6091 14.6003 12.904C14.597 11.3044 16.1121 10.5865 17.4765 10.5862C18.1144 10.5809 18.7993 10.6281 19.3931 10.8872C19.4785 10.9123 19.4962 11.0022 19.4958 11.0828V12.6029C19.5013 12.6973 19.3965 12.7294 19.3255 12.6933Z" fill="#31A8FF"/>
</svg>
