<svg width="26" height="26" viewBox="0 0 26 26" fill="none" xmlns="http://www.w3.org/2000/svg">
<g clip-path="url(#clip0_128_498)">
<path d="M21.9354 14.9747C21.0638 14.9792 20.3062 15.1892 19.6718 15.4995C19.4391 15.0386 19.2063 14.6278 19.1652 14.3266C19.1196 13.9752 19.0648 13.7607 19.1196 13.3409C19.1744 12.921 19.4208 12.3232 19.4163 12.2775C19.4117 12.2319 19.3615 12.0174 18.8595 12.0128C18.3575 12.0083 17.9239 12.1087 17.8737 12.241C17.8235 12.3734 17.7277 12.6746 17.6638 12.9849C17.5771 13.4413 16.6598 15.0705 16.1349 15.9239C15.9661 15.5908 15.8201 15.2987 15.7881 15.066C15.7425 14.7146 15.6877 14.5001 15.7425 14.0802C15.7972 13.6603 16.0437 13.0625 16.0391 13.0169C16.0345 12.9712 15.9843 12.7567 15.4823 12.7522C14.9803 12.7476 14.5468 12.848 14.4966 12.9803C14.4464 13.1127 14.3916 13.423 14.2866 13.7242C14.1817 14.0254 12.9632 16.7454 12.6437 17.4482C12.4794 17.8087 12.3379 18.0963 12.2375 18.2925C12.2375 18.2925 12.233 18.3062 12.2193 18.329C12.1326 18.4979 12.0824 18.5891 12.0824 18.5891C12.0824 18.5891 12.0824 18.5891 12.0824 18.5937C12.0139 18.7169 11.9409 18.831 11.9044 18.831C11.877 18.831 11.8268 18.5024 11.9135 18.0552C12.0961 17.1105 12.5296 15.641 12.5251 15.5908C12.5251 15.5634 12.6072 15.3078 12.2421 15.1755C11.8861 15.0431 11.7583 15.2622 11.7264 15.2622C11.6945 15.2622 11.6716 15.3398 11.6716 15.3398C11.6716 15.3398 12.0687 13.6877 10.9141 13.6877C10.193 13.6877 9.19811 14.4772 8.70523 15.1892C8.3949 15.358 7.73316 15.7186 7.02578 16.1065C6.75652 16.2571 6.47814 16.4077 6.21801 16.5492C6.19975 16.5309 6.1815 16.5081 6.16324 16.4898C4.76675 14.9975 2.18369 13.9433 2.29322 11.9398C2.33429 11.2096 2.58529 9.29286 7.25397 6.96537C11.0966 5.07143 14.1543 5.59626 14.6837 6.76001C15.4413 8.4212 13.0453 11.5063 9.07489 11.9535C7.55974 12.1224 6.76565 11.5382 6.56485 11.3192C6.35492 11.091 6.32297 11.0773 6.24539 11.1229C6.1176 11.1914 6.19975 11.3967 6.24539 11.5154C6.36404 11.8257 6.85236 12.3734 7.67839 12.6426C8.40859 12.8799 10.1839 13.0123 12.3334 12.1817C14.7385 11.2507 16.6187 8.66307 16.0665 6.49531C15.5143 4.2956 11.8633 3.56997 8.40859 4.79761C6.35492 5.5278 4.12783 6.67786 2.52596 8.17476C0.622898 9.9546 0.321693 11.5017 0.444914 12.1497C0.887593 14.4499 4.05937 15.9468 5.32808 17.0557C5.26419 17.0922 5.20486 17.1242 5.15466 17.1516C4.52031 17.4665 2.10154 18.7306 1.49913 20.0678C0.814574 21.5829 1.60866 22.6691 2.13349 22.8151C3.76273 23.2669 5.43761 22.4546 6.33666 21.1129C7.23571 19.7711 7.12618 18.0278 6.71545 17.2292C6.71089 17.22 6.70632 17.2109 6.6972 17.2018C6.86149 17.1059 7.03035 17.0055 7.19464 16.9097C7.51866 16.718 7.83812 16.54 8.11195 16.394C7.95678 16.8184 7.84269 17.325 7.78792 18.0552C7.71947 18.9132 8.07087 20.0267 8.53181 20.4648C8.73717 20.6565 8.97905 20.6611 9.13422 20.6611C9.67273 20.6611 9.91461 20.2138 10.1839 19.6844C10.5125 19.0364 10.8091 18.2834 10.8091 18.2834C10.8091 18.2834 10.4394 20.3188 11.4435 20.3188C11.8085 20.3188 12.1782 19.8442 12.3425 19.6023C12.3425 19.6068 12.3425 19.6068 12.3425 19.6068C12.3425 19.6068 12.3516 19.5932 12.3699 19.5612C12.4064 19.5019 12.4292 19.4654 12.4292 19.4654C12.4292 19.4654 12.4292 19.4608 12.4292 19.4562C12.5753 19.2007 12.9038 18.6211 13.3922 17.6581C14.0219 16.4168 14.6289 14.8652 14.6289 14.8652C14.6289 14.8652 14.6837 15.2439 14.8708 15.8737C14.9803 16.2434 15.2085 16.6496 15.3911 17.042C15.245 17.2474 15.1537 17.3615 15.1537 17.3615C15.1537 17.3615 15.1537 17.3615 15.1583 17.3661C15.0397 17.5212 14.9119 17.6901 14.7704 17.8544C14.273 18.4477 13.6797 19.1277 13.5975 19.3239C13.5017 19.5566 13.5245 19.7255 13.7071 19.8624C13.8394 19.9628 14.0767 19.9765 14.3186 19.9628C14.7658 19.9309 15.0807 19.8213 15.2359 19.7529C15.4778 19.6662 15.7607 19.5338 16.0254 19.3376C16.5137 18.9771 16.8104 18.4614 16.783 17.7814C16.7693 17.4071 16.6461 17.0329 16.4955 16.6815C16.5411 16.6176 16.5822 16.5537 16.6278 16.4898C17.3991 15.3626 17.9969 14.1258 17.9969 14.1258C17.9969 14.1258 18.0517 14.5046 18.2388 15.1344C18.3301 15.4539 18.5172 15.8007 18.6815 16.1384C17.9559 16.7271 17.5086 17.4117 17.3489 17.8589C17.0614 18.6895 17.285 19.0638 17.7094 19.1505C17.9011 19.1916 18.1749 19.1003 18.3757 19.0136C18.6313 18.9314 18.9371 18.7899 19.22 18.58C19.7083 18.2195 20.1784 17.7175 20.151 17.0375C20.1373 16.7271 20.0552 16.4214 19.9411 16.1247C20.5572 15.8692 21.3513 15.7277 22.3644 15.8464C24.5367 16.1019 24.9657 17.4573 24.8836 18.0278C24.8014 18.5983 24.3451 18.9086 24.1945 19.0044C24.0439 19.1003 23.9937 19.1322 24.0073 19.2007C24.0256 19.3011 24.0986 19.2965 24.2264 19.2783C24.4044 19.2463 25.3673 18.8173 25.4084 17.7677C25.4723 16.4259 24.1945 14.961 21.9354 14.9747ZM5.17748 20.6246C4.45641 21.4095 3.4524 21.7062 3.01885 21.4552C2.55335 21.1859 2.7359 20.0267 3.62126 19.1961C4.15977 18.6895 4.85346 18.2195 5.31439 17.932C5.41936 17.8681 5.57452 17.7768 5.76164 17.6627C5.79358 17.6445 5.81184 17.6353 5.81184 17.6353C5.84835 17.6125 5.88486 17.5897 5.92136 17.5669C6.24539 18.7534 5.93506 19.7985 5.17748 20.6246ZM10.4257 17.0557C10.1747 17.6673 9.64991 19.2326 9.33046 19.1459C9.05663 19.0729 8.88778 17.8863 9.27569 16.7135C9.47193 16.1247 9.88723 15.4219 10.1291 15.1481C10.5216 14.71 10.9551 14.5639 11.0601 14.7419C11.1924 14.9747 10.5809 16.6724 10.4257 17.0557ZM14.7567 19.1277C14.6517 19.1824 14.5513 19.2189 14.5057 19.1916C14.4738 19.1733 14.5513 19.1003 14.5513 19.1003C14.5513 19.1003 15.0944 18.5161 15.3089 18.2514C15.4321 18.0963 15.5782 17.9137 15.7333 17.7083C15.7333 17.7266 15.7333 17.7494 15.7333 17.7677C15.7333 18.4659 15.0579 18.936 14.7567 19.1277ZM18.0973 18.3655C18.0198 18.3108 18.0334 18.1282 18.2936 17.5577C18.394 17.3341 18.6313 16.9599 19.0375 16.5994C19.0831 16.7454 19.115 16.8869 19.1105 17.0192C19.1059 17.9 18.4761 18.2286 18.0973 18.3655Z" fill="#CF6296"/>
</g>
<defs>
<clipPath id="clip0_128_498">
<rect width="25" height="25" fill="white" transform="translate(0.5 0.5)"/>
</clipPath>
</defs>
</svg>
