<svg width="26" height="26" viewBox="0 0 26 26" fill="none" xmlns="http://www.w3.org/2000/svg">
<circle cx="13" cy="13" r="10.9375" fill="#0769AD"/>
<path d="M18.201 10.9853C19.183 10.9853 20.0822 10.6578 20.7774 10.1146C20.0557 11.0655 18.8599 11.6872 17.507 11.6872C15.3029 11.6872 13.5162 10.0373 13.5162 8.002C13.5162 6.87351 14.0654 5.86349 14.9306 5.1875C14.4766 5.78568 14.2102 6.51414 14.2102 7.30006C14.2102 9.33534 15.997 10.9853 18.201 10.9853Z" fill="#78CFF5"/>
<path d="M20.7393 13.5145C19.6806 14.345 18.31 14.846 16.8129 14.846C13.4589 14.846 10.7399 12.3318 10.7399 9.2304C10.7399 8.02751 11.149 6.91296 11.8454 5.99917C10.5322 7.02924 9.69885 8.56628 9.69885 10.2833C9.69885 13.3847 12.4178 15.8989 15.7718 15.8989C17.825 15.8989 19.6401 14.9568 20.7393 13.5145Z" fill="#78CFF5"/>
<path d="M20.8125 16.7266C19.3038 18.1663 17.2138 19.0576 14.9043 19.0576C10.3045 19.0576 6.57561 15.5221 6.57561 11.1608C6.57561 9.77876 6.95002 8.47969 7.60791 7.34974C6.11189 8.77735 5.1875 10.7441 5.1875 12.9156C5.1875 17.2769 8.91636 20.8125 13.5162 20.8125C16.6584 20.8125 19.3942 19.1626 20.8125 16.7266Z" fill="#78CFF5"/>
</svg>
