<svg width="26" height="26" viewBox="0 0 26 26" fill="none" xmlns="http://www.w3.org/2000/svg">
<path fill-rule="evenodd" clip-rule="evenodd" d="M13 13C13 11.2741 14.3991 9.875 16.125 9.875C17.8509 9.875 19.25 11.2741 19.25 13C19.25 14.7259 17.8509 16.125 16.125 16.125C14.3991 16.125 13 14.7259 13 13Z" fill="#1ABCFE"/>
<path fill-rule="evenodd" clip-rule="evenodd" d="M6.75 19.25C6.75 17.5241 8.14911 16.125 9.875 16.125H13V19.25C13 20.9759 11.6009 22.375 9.875 22.375C8.14911 22.375 6.75 20.9759 6.75 19.25Z" fill="#0ACF83"/>
<path fill-rule="evenodd" clip-rule="evenodd" d="M13 3.625V9.875H16.125C17.8509 9.875 19.25 8.47589 19.25 6.75C19.25 5.02411 17.8509 3.625 16.125 3.625H13Z" fill="#FF7262"/>
<path fill-rule="evenodd" clip-rule="evenodd" d="M6.75 6.75C6.75 8.47589 8.14911 9.875 9.875 9.875H13V3.625H9.875C8.14911 3.625 6.75 5.02411 6.75 6.75Z" fill="#F24E1E"/>
<path fill-rule="evenodd" clip-rule="evenodd" d="M6.75 13C6.75 14.7259 8.14911 16.125 9.875 16.125H13V9.875H9.875C8.14911 9.875 6.75 11.2741 6.75 13Z" fill="#A259FF"/>
</svg>
