<svg width="26" height="26" viewBox="0 0 26 26" fill="none" xmlns="http://www.w3.org/2000/svg">
<path d="M2.0625 9.97917C2.0625 7.20807 2.0625 5.82253 2.60179 4.76411C3.07616 3.8331 3.8331 3.07616 4.76411 2.60179C5.82253 2.0625 7.20807 2.0625 9.97917 2.0625H16.0208C18.7919 2.0625 20.1775 2.0625 21.2359 2.60179C22.1669 3.07616 22.9238 3.8331 23.3982 4.76411C23.9375 5.82253 23.9375 7.20807 23.9375 9.97917V16.0208C23.9375 18.7919 23.9375 20.1775 23.3982 21.2359C22.9238 22.1669 22.1669 22.9238 21.2359 23.3982C20.1775 23.9375 18.7919 23.9375 16.0208 23.9375H9.97917C7.20807 23.9375 5.82253 23.9375 4.76411 23.3982C3.8331 22.9238 3.07616 22.1669 2.60179 21.2359C2.0625 20.1775 2.0625 18.7919 2.0625 16.0208V9.97917Z" fill="#330000"/>
<path d="M12.6636 15.8096H9.27375L8.58406 18.007C8.56491 18.0886 8.48973 18.1465 8.40796 18.1425H6.69105C6.59314 18.1425 6.5589 18.0873 6.58833 17.9769L9.5232 9.30766C9.55258 9.21737 9.58193 9.11452 9.61128 8.99911C9.64966 8.79831 9.66932 8.59421 9.66998 8.38958C9.66157 8.32913 9.7147 8.27573 9.7727 8.28421H12.1059C12.1743 8.28421 12.2134 8.3093 12.2233 8.35948L15.5545 17.9919C15.5838 18.0924 15.5544 18.1425 15.4664 18.1425H13.5587C13.4918 18.1501 13.4279 18.1042 13.4119 18.0371L12.6636 15.8096ZM9.80203 13.9132H12.1206C11.7397 12.6115 11.3098 11.3269 10.9613 10.0151C10.5854 11.3291 10.1752 12.6379 9.80203 13.9132Z" fill="#FF9A00"/>
<path d="M17.5353 9.87955C17.3856 9.88571 17.2364 9.85941 17.0973 9.80235C16.9582 9.74529 16.8325 9.65877 16.7282 9.54843C16.6243 9.43332 16.5435 9.29826 16.4906 9.15104C16.4377 9.00381 16.4137 8.84731 16.42 8.69054C16.4147 8.53532 16.4413 8.38069 16.4982 8.23676C16.5551 8.09282 16.641 7.96281 16.7502 7.85522C16.8584 7.74874 16.986 7.66532 17.1258 7.60978C17.2656 7.55424 17.4148 7.52768 17.5646 7.53164C17.9168 7.53164 18.1932 7.6395 18.3938 7.85522C18.495 7.96733 18.5737 8.09882 18.6253 8.24215C18.6769 8.38549 18.7004 8.53786 18.6946 8.69054C18.7007 8.84792 18.6759 9.00497 18.6217 9.15234C18.5675 9.29971 18.485 9.43441 18.3791 9.54843C18.2683 9.66038 18.1362 9.7476 17.991 9.80459C17.8458 9.86158 17.6906 9.8871 17.5353 9.87955ZM16.5227 17.9919V10.7976C16.5227 10.7073 16.5617 10.6622 16.6401 10.6622H18.4451C18.5233 10.6622 18.5625 10.7073 18.5625 10.7976V17.9919C18.5625 18.0923 18.5234 18.1425 18.4451 18.1424H16.6548C16.5668 18.1424 16.5228 18.0922 16.5227 17.9919Z" fill="#FF9A00"/>
</svg>
