<svg width="26" height="26" viewBox="0 0 26 26" fill="none" xmlns="http://www.w3.org/2000/svg">
<path fill-rule="evenodd" clip-rule="evenodd" d="M4.96562 23.3264L2.27862 19.979C1.63213 19.1736 1.28125 18.1833 1.28125 17.164V5.04296C1.28125 3.51613 2.5028 2.24919 4.07868 2.1416L16.5407 1.29077C17.4461 1.22895 18.3459 1.4696 19.0897 1.97242L23.4682 4.93274C24.2519 5.46265 24.7188 6.32889 24.7188 7.25332V21.0337C24.7188 22.5279 23.5176 23.7651 21.9747 23.86L8.14323 24.7115C6.91198 24.7872 5.72187 24.2685 4.96562 23.3264Z" fill="white"/>
<path d="M9.28769 11.1083V10.9496C9.28769 10.5473 9.60986 10.2137 10.0251 10.186L13.0496 9.98408L17.2322 16.1433V10.7375L16.1556 10.594V10.5186C16.1556 10.1117 16.4851 9.77585 16.9057 9.7543L19.6576 9.61333V10.0094C19.6576 10.1953 19.5194 10.3543 19.3299 10.3863L18.6676 10.4983V19.2528L17.8365 19.5386C17.1422 19.7774 16.3692 19.5218 15.9717 18.922L11.9111 12.7946V18.6429L13.1609 18.8821L13.1435 18.998C13.089 19.3611 12.7755 19.6358 12.3962 19.6526L9.28769 19.791C9.2466 19.4005 9.53927 19.0511 9.94301 19.0087L10.3519 18.9658V11.1681L9.28769 11.1083Z" fill="black"/>
<path fill-rule="evenodd" clip-rule="evenodd" d="M16.6524 2.81772L4.19033 3.66856C3.44386 3.71952 2.86523 4.31965 2.86523 5.04288V17.1639C2.86523 17.8434 3.09916 18.5037 3.53015 19.0406L6.21715 22.388C6.65159 22.9292 7.33527 23.2272 8.04258 23.1836L21.8741 22.3322C22.583 22.2886 23.1348 21.7202 23.1348 21.0337V7.25325C23.1348 6.82851 22.9203 6.43051 22.5602 6.18704L18.1817 3.22672C17.7355 2.92502 17.1956 2.78063 16.6524 2.81772ZM4.8083 5.23195C4.63498 5.10363 4.71746 4.83629 4.9352 4.82067L16.7362 3.97423C17.1122 3.94726 17.4858 4.0508 17.7899 4.26623L20.1577 5.94377C20.2476 6.00746 20.2054 6.14495 20.0941 6.151L7.5969 6.83068C7.21869 6.85125 6.84538 6.74014 6.54466 6.5175L4.8083 5.23195ZM7.01073 8.96142C7.01073 8.55542 7.33872 8.22005 7.75814 8.19721L20.9713 7.47762C21.38 7.45536 21.7241 7.76972 21.7241 8.16541V20.0978C21.7241 20.503 21.3973 20.8381 20.9787 20.8619L7.84925 21.6089C7.39434 21.6348 7.01073 21.2853 7.01073 20.8448V8.96142Z" fill="black"/>
</svg>
