<svg width="33" height="32" viewBox="0 0 33 32" fill="none" xmlns="http://www.w3.org/2000/svg">
<path d="M16.6741 21C16.9488 21 17.1791 20.9042 17.365 20.7125C17.5508 20.5208 17.6437 20.2833 17.6437 20C17.6437 19.7167 17.5508 19.4792 17.365 19.2875C17.1791 19.0958 16.9488 19 16.6741 19C16.3993 19 16.169 19.0958 15.9831 19.2875C15.7973 19.4792 15.7044 19.7167 15.7044 20C15.7044 20.2833 15.7973 20.5208 15.9831 20.7125C16.169 20.9042 16.3993 21 16.6741 21ZM15.7044 17H17.6437V11H15.7044V17ZM13.0377 25L7.94678 19.75V12.25L13.0377 7H20.3104L25.4013 12.25V19.75L20.3104 25H13.0377ZM13.8619 23H19.4862L23.4619 18.9V13.1L19.4862 9H13.8619L9.88617 13.1V18.9L13.8619 23Z" fill="#C9CAC9"/>
</svg>
