<svg width="40" height="41" viewBox="0 0 40 41" fill="none" xmlns="http://www.w3.org/2000/svg">
<g clip-path="url(#clip0_118_4653)">
<path opacity="0.4" fill-rule="evenodd" clip-rule="evenodd" d="M7.55039 1.28277C8.03854 1.77093 8.03854 2.56238 7.55039 3.05054L2.55039 8.05054C2.06223 8.5387 1.27078 8.5387 0.78262 8.05054C0.294465 7.56238 0.294465 6.77093 0.78262 6.28277L5.78262 1.28277C6.27078 0.794618 7.06223 0.794618 7.55039 1.28277ZM19.9998 12.5833C20.6902 12.5833 21.2498 13.143 21.2498 13.8333V19.831L25.6932 22.7933C26.2676 23.1762 26.4228 23.9523 26.0399 24.5267C25.657 25.1011 24.8809 25.2563 24.3065 24.8734L19.3065 21.5401C18.9587 21.3082 18.7498 20.9179 18.7498 20.5V13.8333C18.7498 13.143 19.3095 12.5833 19.9998 12.5833ZM32.4493 3.05054C31.9611 2.56238 31.9611 1.77093 32.4493 1.28277C32.9374 0.794618 33.7289 0.794618 34.2171 1.28277L39.2171 6.28277C39.7052 6.77093 39.7052 7.56238 39.2171 8.05054C38.7289 8.5387 37.9374 8.5387 37.4493 8.05054L32.4493 3.05054Z" fill="#333333"/>
<path fill-rule="evenodd" clip-rule="evenodd" d="M20.0002 5.08334C11.4858 5.08334 4.5835 11.9856 4.5835 20.5C4.5835 29.0144 11.4858 35.9167 20.0002 35.9167C28.5146 35.9167 35.4168 29.0144 35.4168 20.5C35.4168 11.9856 28.5146 5.08334 20.0002 5.08334ZM2.0835 20.5C2.0835 10.6049 10.1051 2.58334 20.0002 2.58334C29.8953 2.58334 37.9168 10.6049 37.9168 20.5C37.9168 30.3951 29.8953 38.4167 20.0002 38.4167C10.1051 38.4167 2.0835 30.3951 2.0835 20.5Z" fill="#333333"/>
</g>
<defs>
<clipPath id="clip0_118_4653">
<rect width="40" height="40" fill="white" transform="translate(0 0.5)"/>
</clipPath>
</defs>
</svg>
