<svg width="40" height="41" viewBox="0 0 40 41" fill="none" xmlns="http://www.w3.org/2000/svg">
<path opacity="0.4" fill-rule="evenodd" clip-rule="evenodd" d="M11.667 10.9166C10.9766 10.9166 10.417 11.4763 10.417 12.1666C10.417 12.857 10.9766 13.4166 11.667 13.4166H25.0003C25.6907 13.4166 26.2503 12.857 26.2503 12.1666C26.2503 11.4763 25.6907 10.9166 25.0003 10.9166H11.667ZM27.917 36.3333C27.917 37.0237 27.3573 37.5833 26.667 37.5833C25.9766 37.5833 25.417 37.0237 25.417 36.3333V32.5L25.417 32.4492V32.4492C25.417 31.559 25.417 30.8159 25.4666 30.2088C25.5183 29.5757 25.6301 28.9813 25.9165 28.4192C26.356 27.5568 27.0571 26.8556 27.9195 26.4162C28.4816 26.1298 29.0761 26.0179 29.7092 25.9662C30.3163 25.9166 31.0594 25.9166 31.9496 25.9166H32.0003H35.8337C36.524 25.9166 37.0837 26.4763 37.0837 27.1666C37.0837 27.857 36.524 28.4166 35.8337 28.4166H32.0003C31.0463 28.4166 30.4059 28.4176 29.9128 28.4579C29.4342 28.497 29.2054 28.5668 29.0545 28.6437C28.6625 28.8434 28.3438 29.1621 28.1441 29.5541C28.0672 29.7051 27.9974 29.9339 27.9583 30.4124C27.918 30.9056 27.917 31.5459 27.917 32.5V36.3333ZM10.417 18.8333C10.417 18.1429 10.9766 17.5833 11.667 17.5833H21.667C22.3573 17.5833 22.917 18.1429 22.917 18.8333C22.917 19.5236 22.3573 20.0833 21.667 20.0833H11.667C10.9766 20.0833 10.417 19.5236 10.417 18.8333ZM11.667 24.25C10.9766 24.25 10.417 24.8096 10.417 25.5C10.417 26.1903 10.9766 26.75 11.667 26.75H15.0003C15.6907 26.75 16.2503 26.1903 16.2503 25.5C16.2503 24.8096 15.6907 24.25 15.0003 24.25H11.667Z" fill="#333333"/>
<path fill-rule="evenodd" clip-rule="evenodd" d="M19.2769 2.58328H19.3335H20.6668H20.7234C23.4758 2.58328 25.6181 2.58327 27.3366 2.72368C29.0814 2.86623 30.4991 3.15974 31.7742 3.80946C33.891 4.88803 35.6121 6.60907 36.6907 8.72589C37.3404 10.001 37.6339 11.4187 37.7764 13.1635C37.9168 14.882 37.9168 17.0243 37.9168 19.7767V19.8333V25.7859V25.8254C37.9168 26.35 37.9168 26.6626 37.9003 26.9675C37.7614 29.5268 36.7527 31.962 35.0412 33.87C34.8373 34.0973 34.6163 34.3183 34.2453 34.6892L34.2174 34.7172L34.1895 34.7451C33.8185 35.1161 33.5975 35.3371 33.3702 35.541C31.4622 37.2525 29.027 38.2612 26.4677 38.4001C26.1628 38.4166 25.8502 38.4166 25.3256 38.4166H25.2861H19.3335H19.2769C16.5245 38.4166 14.3822 38.4166 12.6637 38.2762C10.9189 38.1337 9.50125 37.8402 8.2261 37.1904C6.10928 36.1119 4.38825 34.3908 3.30967 32.274C2.65995 30.9989 2.36645 29.5812 2.22389 27.8364C2.08348 26.1179 2.08349 23.9756 2.0835 21.2232V21.1666V19.8333V19.7767C2.08349 17.0243 2.08348 14.882 2.22389 13.1635C2.36645 11.4187 2.65995 10.001 3.30967 8.72589C4.38825 6.60907 6.10928 4.88803 8.2261 3.80946C9.50125 3.15974 10.9189 2.86623 12.6637 2.72368C14.3822 2.58327 16.5245 2.58328 19.2769 2.58328ZM12.8673 5.21537C11.2771 5.3453 10.2251 5.59676 9.36108 6.03698C7.71466 6.87587 6.37608 8.21445 5.53719 9.86087C5.09697 10.7248 4.84551 11.7769 4.71559 13.3671C4.58447 14.9719 4.5835 17.0124 4.5835 19.8333V21.1666C4.5835 23.9875 4.58447 26.028 4.71559 27.6328C4.84551 29.223 5.09697 30.2751 5.53719 31.139C6.37608 32.7854 7.71466 34.124 9.36108 34.9629C10.2251 35.4031 11.2771 35.6546 12.8673 35.7845C14.4721 35.9156 16.5126 35.9166 19.3335 35.9166H25.2861C25.8617 35.9166 26.1032 35.9162 26.3322 35.9038C28.3228 35.7957 30.2169 35.0112 31.7008 33.68C31.8716 33.5268 32.0426 33.3564 32.4496 32.9494C32.8566 32.5424 33.0271 32.3714 33.1802 32.2006C34.5114 30.7166 35.2959 28.8226 35.404 26.832C35.4164 26.603 35.4168 26.3614 35.4168 25.7859V19.8333C35.4168 17.0124 35.4159 14.9719 35.2847 13.3671C35.1548 11.7769 34.9034 10.7248 34.4631 9.86087C33.6242 8.21445 32.2857 6.87587 30.6392 6.03698C29.7753 5.59676 28.7232 5.3453 27.133 5.21537C25.5282 5.08425 23.4877 5.08328 20.6668 5.08328H19.3335C16.5126 5.08328 14.4721 5.08425 12.8673 5.21537Z" fill="#333333"/>
</svg>
