<svg width="40" height="41" viewBox="0 0 40 41" fill="none" xmlns="http://www.w3.org/2000/svg">
<path opacity="0.4" fill-rule="evenodd" clip-rule="evenodd" d="M20.0002 5.08328C17.0086 5.08328 14.5835 7.50841 14.5835 10.4999C14.5835 13.4915 17.0086 15.9166 20.0002 15.9166C22.9917 15.9166 25.4168 13.4915 25.4168 10.4999C25.4168 7.50841 22.9917 5.08328 20.0002 5.08328ZM12.0835 10.4999C12.0835 6.12769 15.6279 2.58328 20.0002 2.58328C24.3724 2.58328 27.9168 6.12769 27.9168 10.4999C27.9168 14.8722 24.3724 18.4166 20.0002 18.4166C15.6279 18.4166 12.0835 14.8722 12.0835 10.4999Z" fill="#333333"/>
<path fill-rule="evenodd" clip-rule="evenodd" d="M5.41699 31.8333C5.41699 26.7246 9.55836 22.5833 14.667 22.5833H25.3337C30.4423 22.5833 34.5837 26.7246 34.5837 31.8333C34.5837 35.4692 31.6362 38.4166 28.0003 38.4166H12.0003C8.36445 38.4166 5.41699 35.4692 5.41699 31.8333ZM14.667 25.0833C10.9391 25.0833 7.91699 28.1054 7.91699 31.8333C7.91699 34.0884 9.74516 35.9166 12.0003 35.9166H28.0003C30.2555 35.9166 32.0837 34.0884 32.0837 31.8333C32.0837 28.1054 29.0616 25.0833 25.3337 25.0833H14.667Z" fill="#333333"/>
</svg>
