<svg width="40" height="40" viewBox="0 0 40 40" fill="none" xmlns="http://www.w3.org/2000/svg">
<path d="M0 16C0 7.16344 7.16344 0 16 0H24C32.8366 0 40 7.16344 40 16V24C40 32.8366 32.8366 40 24 40H16C7.16344 40 0 32.8366 0 24V16Z" fill="white"/>
<path d="M13.8193 22.5713V13.7031H16.4473V22.5713C16.4473 23.4268 16.2598 24.1621 15.8848 24.7773C15.5098 25.3867 14.9971 25.8555 14.3467 26.1836C13.7021 26.5117 12.9756 26.6758 12.167 26.6758C11.3291 26.6758 10.5879 26.5352 9.94336 26.2539C9.29883 25.9727 8.79199 25.542 8.42285 24.9619C8.05371 24.376 7.86914 23.6348 7.86914 22.7383H10.5146C10.5146 23.207 10.5791 23.5791 10.708 23.8545C10.8428 24.1299 11.0332 24.3262 11.2793 24.4434C11.5254 24.5605 11.8213 24.6191 12.167 24.6191C12.501 24.6191 12.791 24.54 13.0371 24.3818C13.2832 24.2236 13.4736 23.9922 13.6084 23.6875C13.749 23.3828 13.8193 23.0107 13.8193 22.5713ZM29.2314 18.915V20.9717H22.5518V18.915H29.2314ZM23.334 13.7031V26.5H20.6973V13.7031H23.334ZM31.1123 13.7031V26.5H28.4844V13.7031H31.1123Z" fill="#333333"/>
</svg>
