<svg viewBox="0 0 169 168" fill="none" xmlns="http://www.w3.org/2000/svg">
<g clip-path="url(#clip0_150_4901)">
<rect x="0.799805" width="168" height="168" rx="14.4" fill="#FACE00"/>
<g clip-path="url(#clip1_150_4901)">
<path d="M132.854 168.72L132.854 90.0456C126.074 84.95 113.94 81.4089 108.153 79.2929C102.539 77.2633 100.38 75.3201 100.38 75.3201H74.5564C74.5564 75.3201 72.3972 77.2633 66.7834 79.2929C62.5514 80.8475 52.8351 84.3022 48.9918 85.7273C47.9986 86.0727 47.3508 86.9796 47.2645 88.016C47.2645 88.016 40.4 144.24 43.7234 168.72C47.84 169.2 132.854 168.72 132.854 168.72Z" fill="#3079E2"/>
<path d="M73.3472 76.1405L87.4681 120.447L101.719 76.3133L100.25 73.5927L74.6427 73.3336L73.3472 76.1405Z" fill="white"/>
<path d="M87.4681 120.447L92.0456 106.283L89.8864 87.7569L90.7069 82.2726H83.5384L84.7044 87.8001L82.9771 106.283L87.4681 120.447Z" fill="#5CD6FF"/>
<path d="M68.8133 79.4225C68.8133 79.6384 67.8633 94.8821 67.8633 94.8821L72.5271 95.9617L71.5771 103.476L87.5117 120.404L87.6413 135.215" stroke="#1E1E1E" stroke-width="0.431834" stroke-miterlimit="10" stroke-linecap="round" stroke-linejoin="round"/>
<path d="M106.166 78.9907C106.166 79.2066 107.16 94.9254 107.16 94.9254L102.496 96.005L103.446 103.519L87.5112 120.447" stroke="#1E1E1E" stroke-width="0.431834" stroke-miterlimit="10" stroke-linecap="round" stroke-linejoin="round"/>
<path d="M77.2769 88.1887L87.5113 78.4724L97.5299 89.3546" stroke="#1E1E1E" stroke-width="0.431834" stroke-miterlimit="10" stroke-linecap="round" stroke-linejoin="round"/>
<path d="M132.854 90.0455C132.854 90.0455 138.77 95.098 142.398 105.289C146.932 118.028 158.591 151.452 154.489 156.462C153.841 158.621 109.362 170.28 109.362 170.28L100.51 154.734L129.011 145.45L124.908 120.188C124.865 120.188 126.333 94.623 132.854 90.0455Z" fill="#3079E2"/>
<path d="M100.898 153.439L130.479 140.268C130.479 140.268 125.729 105.073 131.99 90.8229" stroke="#1E1E1E" stroke-width="0.431834" stroke-miterlimit="10" stroke-linecap="round" stroke-linejoin="round"/>
<path d="M123.569 174.34C123.569 176.844 121.54 178.874 119.035 178.874H55.9874C53.4827 178.874 51.4531 176.844 51.4531 174.34V135.345C51.4531 132.84 53.4827 130.811 55.9874 130.811H119.035C121.54 130.811 123.569 132.84 123.569 135.345V174.34Z" fill="#DDDAD9"/>
<path d="M91.7003 153.266C91.7003 155.598 89.8003 157.455 87.5115 157.455C85.1796 157.455 83.3228 155.555 83.3228 153.266C83.3228 150.934 85.2228 149.077 87.5115 149.077C89.8434 149.077 91.7003 150.934 91.7003 153.266Z" fill="#F5F5F5"/>
<path d="M34.0934 68.8857L37.2458 37.3618C37.2458 37.3618 35.5616 35.2026 33.4024 36.8868C31.2433 38.5709 30.6819 46.1712 30.6819 46.1712C30.6819 46.1712 22.5634 41.8529 20.1883 42.3711C17.8132 42.8893 18.9792 46.603 18.9792 46.603C18.9792 46.603 16.0427 47.3372 18.2882 51.0077C18.2882 51.0077 16.1291 53.9874 18.2882 56.0602C18.2882 56.0602 16.5177 57.9171 17.8132 59.774C19.6269 62.365 22.002 64.9128 22.002 64.9128L22.0884 71.9949L34.0934 68.8857Z" fill="#FFD3B6"/>
<path d="M30.6385 46.7758C30.5953 47.2076 32.3659 49.9713 29.7317 50.7486L18.979 46.603" stroke="#1E1E1E" stroke-width="0.647751" stroke-miterlimit="10" stroke-linecap="round" stroke-linejoin="round"/>
<path d="M29.7317 50.7054C29.7317 50.7054 31.1999 53.7283 29.0839 54.851L18.2881 51.0077" stroke="#1E1E1E" stroke-width="0.647751" stroke-miterlimit="10" stroke-linecap="round" stroke-linejoin="round"/>
<path d="M29.0839 54.8511C29.0839 54.8511 29.6453 58.3489 27.1839 58.4353C24.7224 58.5217 18.2881 56.1034 18.2881 56.1034" stroke="#1E1E1E" stroke-width="0.647751" stroke-miterlimit="10" stroke-linecap="round" stroke-linejoin="round"/>
<path d="M25.7156 58.4785C25.7156 58.4785 27.4861 61.2423 24.4201 61.5445L18.979 59.6013" stroke="#1E1E1E" stroke-width="0.647751" stroke-miterlimit="10" stroke-linecap="round" stroke-linejoin="round"/>
<path d="M48.4738 85.8999L37.0734 94.9685L35.1734 64.6969L18.7637 68.6698C18.7637 68.6698 13.4953 126.751 19.7137 129.861C27.9186 134.006 49.1648 127.874 47.1352 128.349L48.4738 85.8999Z" fill="#3079E2"/>
<path d="M35.8641 115.783C35.6914 115.135 36.5551 95.2708 36.5551 95.2708" stroke="#1E1E1E" stroke-width="0.431834" stroke-miterlimit="10" stroke-linecap="round" stroke-linejoin="round"/>
<path d="M75.4632 62.3651C75.4632 62.3651 75.2905 72.3405 74.5132 73.7655L87.5114 78.4725L100.207 73.7655C99.43 72.3837 99.2573 62.3651 99.2573 62.3651H75.4632Z" fill="#FFD3B6"/>
<path d="M99.8622 71.995C99.4303 68.7131 99.344 62.3651 99.344 62.3651H96.7098L79.6523 67.5903C79.6955 67.5903 85.3526 78.1702 99.8622 71.995Z" fill="#FBAB7D"/>
<path d="M87.5545 39.1757C95.7593 39.1757 101.373 44.2713 101.028 56.1467C101.028 65.1289 95.7593 71.7359 87.5545 71.7359H87.209C79.0042 71.7359 73.7358 65.1721 73.7358 56.1467C73.3903 44.3145 79.0042 39.1757 87.209 39.1757H87.5545Z" fill="#FFD3B6"/>
<path d="M83.8409 54.0739C83.8409 54.7217 83.4091 55.2399 82.8477 55.2399C82.2863 55.2399 81.8545 54.7217 81.8545 54.0739C81.8545 53.4262 82.2863 52.908 82.8477 52.908C83.3659 52.908 83.8409 53.4262 83.8409 54.0739Z" fill="#1E1E1E"/>
<path d="M93.3849 54.0739C93.3849 54.7217 92.953 55.2399 92.3917 55.2399C91.8303 55.2399 91.3984 54.7217 91.3984 54.0739C91.3984 53.4262 91.8303 52.908 92.3917 52.908C92.953 52.908 93.3849 53.4262 93.3849 54.0739Z" fill="#1E1E1E"/>
<path d="M86.8209 55.2399C86.8209 55.2399 85.7413 56.7945 86.0867 57.3559C86.389 57.8309 87.2095 58.0468 87.2095 58.0468" stroke="#1E1E1E" stroke-width="0.431834" stroke-miterlimit="10" stroke-linecap="round" stroke-linejoin="round"/>
<path d="M84.0137 60.8536C84.0137 60.8536 85.2228 62.1923 87.3388 62.1923C89.4548 62.1923 91.2253 60.8536 91.2253 60.8536" stroke="#1E1E1E" stroke-width="0.431834" stroke-miterlimit="10" stroke-linecap="round" stroke-linejoin="round"/>
<path d="M90.7935 49.9715C90.7935 49.9715 92.089 49.4965 93.8163 49.9715" stroke="#1E1E1E" stroke-width="0.647751" stroke-miterlimit="10" stroke-linecap="round" stroke-linejoin="round"/>
<path d="M81.0342 49.9715C81.0342 49.9715 82.3729 49.4965 84.057 49.9715" stroke="#1E1E1E" stroke-width="0.647751" stroke-miterlimit="10" stroke-linecap="round" stroke-linejoin="round"/>
<path d="M74.211 49.8419C80.7749 50.317 83.5386 38.8302 87.6411 43.1917C90.9662 39.6507 92.3912 49.3669 99.7756 49.5397C99.9483 50.1442 100.337 52.6489 100.337 52.6489L103.144 51.8284C103.144 51.8284 103.101 50.7488 103.273 49.1078C108.153 49.6692 105.389 30.8844 87.7706 35.5051C73.0451 28.898 66.1789 47.5964 71.145 49.626C71.3609 50.4033 71.3609 52.1307 71.3609 52.1307L73.9951 52.3466L74.211 49.8419Z" fill="#1E1E1E"/>
<path d="M74.3406 52.433C74.3406 52.433 71.9223 49.9715 70.0222 52.433C67.9494 55.1103 71.4041 60.6378 74.3406 58.3059C74.3406 57.8741 74.3406 52.433 74.3406 52.433Z" fill="#FFD3B6"/>
<path d="M100.035 52.5626C100.035 52.5626 102.885 49.9716 104.785 52.4762C106.858 55.1536 103.403 60.6811 100.467 58.3492C100.467 57.8741 100.035 52.5626 100.035 52.5626Z" fill="#FFD3B6"/>
</g>
<g clip-path="url(#clip2_150_4901)">
<path d="M118.526 17.04C115.264 17.7428 114.871 18.3145 114.383 23.04C113.895 18.3093 113.502 17.7428 110.24 17.04C113.502 16.3372 113.895 15.7708 114.383 11.04C114.866 15.7708 115.259 16.3372 118.526 17.04Z" fill="white"/>
</g>
<g clip-path="url(#clip3_150_4901)">
<path d="M57.0304 31.0846C52.6565 32.0269 52.1291 32.7934 51.4752 39.1292C50.8212 32.7863 50.2938 32.0269 45.9199 31.0846C50.2938 30.1423 50.8212 29.3829 51.4752 23.04C52.1221 29.3829 52.6495 30.1423 57.0304 31.0846Z" fill="white"/>
</g>
<g clip-path="url(#clip4_150_4901)">
<path d="M143.91 56.64C137.647 57.9894 136.892 59.087 135.955 68.16C135.019 59.0769 134.263 57.9894 128 56.64C134.263 55.2906 135.019 54.2031 135.955 45.12C136.882 54.2031 137.637 55.2906 143.91 56.64Z" fill="white"/>
</g>
</g>
<defs>
<clipPath id="clip0_150_4901">
<rect x="0.799805" width="168" height="168" rx="14.4" fill="white"/>
</clipPath>
<clipPath id="clip1_150_4901">
<rect width="138.619" height="149.76" fill="white" transform="translate(16.6904 34.08)"/>
</clipPath>
<clipPath id="clip2_150_4901">
<rect width="8.28671" height="12" fill="white" transform="translate(110.24 11.04)"/>
</clipPath>
<clipPath id="clip3_150_4901">
<rect width="11.1105" height="16.0891" fill="white" transform="translate(45.9199 23.04)"/>
</clipPath>
<clipPath id="clip4_150_4901">
<rect width="15.9105" height="23.04" fill="white" transform="translate(128 45.12)"/>
</clipPath>
</defs>
</svg>
