<svg viewBox="0 0 169 168" fill="none" xmlns="http://www.w3.org/2000/svg">
<rect x="0.200195" width="168" height="168" rx="14.4" fill="#FF9B64"/>
<g clip-path="url(#clip0_150_4947)">
<path d="M130.486 140.64C124.944 140.64 120.419 137.284 120.063 133.013V132.861C120.063 132.759 120.063 132.658 120.063 132.556C120.063 132.454 120.063 132.352 120.063 132.251V103.931H120.571H139.689H140.909V133.013H140.858C140.553 137.284 136.028 140.64 130.486 140.64Z" fill="#FFC6A7"/>
<path d="M35.1032 140.64C29.5612 140.64 25.0361 135.505 24.6802 129.099V128.844C24.6802 128.793 24.6802 128.692 24.6802 128.641V128.387V37.0204H120.063V103.575V127.878C120.063 128.031 120.063 128.183 120.063 128.336C120.063 128.488 120.063 128.641 120.063 128.793V129.048C120.368 135.251 124.588 140.233 129.876 140.589C129.673 140.589 129.469 140.64 129.266 140.64H35.1032Z" fill="white"/>
<path d="M38.2046 52.1211H41.9162L47.2039 61.8831L49.0343 65.8489H49.136C48.9835 63.9677 48.6784 61.5272 48.6784 59.4426V52.1211H52.1358V70.4249H48.4242L43.1873 60.6629L41.3569 56.7479H41.2552C41.4077 58.7308 41.7128 61.0188 41.7128 63.1034V70.4249H38.2554V52.1211H38.2046Z" fill="#565CB2"/>
<path d="M56.6606 52.1211H67.8463V55.1717H60.3214V59.3918H66.7277V62.4424H60.3214V67.3234H68.1513V70.374H56.6606V52.1211Z" fill="#565CB2"/>
<path d="M70.0835 52.1211H73.7951L75.2696 61.0696C75.5238 63.0017 75.8288 64.9337 76.0831 66.9166H76.1848C76.5407 64.9337 76.9474 63.0017 77.3542 61.0696L79.4896 52.1211H82.6419L84.7265 61.0696C85.1333 62.9508 85.4892 64.9337 85.8959 66.9166H85.9976C86.2518 64.9337 86.5569 63.0017 86.8111 61.0696L88.2856 52.1211H91.7429L88.3873 70.4249H83.8622L81.8284 61.3747C81.5233 59.951 81.2691 58.5274 81.0149 57.1546H80.9132C80.659 58.5783 80.4048 59.951 80.0997 61.3747L78.066 70.4249H73.5917L70.0835 52.1211Z" fill="#565CB2"/>
<path d="M93.1157 68.0861L95.2003 65.5947C96.5223 66.815 98.2509 67.6285 99.8271 67.6285C101.708 67.6285 102.725 66.815 102.725 65.5439C102.725 64.1711 101.607 63.7643 99.9796 63.0525L97.5391 62.0356C95.7088 61.273 93.8275 59.7985 93.8275 57.1038C93.8275 54.104 96.4206 51.816 100.132 51.816C102.268 51.816 104.352 52.6295 105.878 54.1549L104.047 56.4428C102.878 55.4768 101.657 54.9175 100.183 54.9175C98.556 54.9175 97.59 55.6293 97.59 56.8496C97.59 58.1715 98.8611 58.6291 100.437 59.2392L102.827 60.2561C105.064 61.1713 106.488 62.5949 106.488 65.2388C106.488 68.2386 103.996 70.7808 99.7763 70.7808C97.3358 70.7808 94.8953 69.8147 93.1157 68.0861Z" fill="#565CB2"/>
<path d="M104.962 86.2372H39.7298C38.9163 86.2372 38.2554 85.4622 38.2554 84.5085C38.2554 83.5547 38.9163 82.7798 39.7298 82.7798H104.962C105.776 82.7798 106.437 83.5547 106.437 84.5085C106.437 85.4622 105.776 86.2372 104.962 86.2372Z" fill="#D9D9D9"/>
<path d="M104.962 96.406H39.7298C38.9163 96.406 38.2554 95.6311 38.2554 94.6773C38.2554 93.7235 38.9163 92.9486 39.7298 92.9486H104.962C105.776 92.9486 106.437 93.7235 106.437 94.6773C106.437 95.6311 105.776 96.406 104.962 96.406Z" fill="#D9D9D9"/>
<path d="M104.962 106.575H39.7298C38.9163 106.575 38.2554 105.8 38.2554 104.846C38.2554 103.892 38.9163 103.117 39.7298 103.117H104.962C105.776 103.117 106.437 103.892 106.437 104.846C106.437 105.859 105.776 106.575 104.962 106.575Z" fill="#D9D9D9"/>
<path d="M104.962 116.743H39.7298C38.9163 116.743 38.2554 115.968 38.2554 115.015C38.2554 114.061 38.9163 113.286 39.7298 113.286H104.962C105.776 113.286 106.437 114.061 106.437 115.015C106.437 115.968 105.776 116.743 104.962 116.743Z" fill="#D9D9D9"/>
<path d="M87.3705 126.912H39.7298C38.9163 126.912 38.2554 126.137 38.2554 125.184C38.2554 124.23 38.9163 123.455 39.7298 123.455H87.3705C88.184 123.455 88.8449 124.23 88.8449 125.184C88.8449 126.137 88.184 126.912 87.3705 126.912Z" fill="#D9D9D9"/>
</g>
<g clip-path="url(#clip1_150_4947)">
<path d="M130.943 28.2213C130.943 27.7449 131.328 27.36 131.805 27.36C137.99 27.36 143.002 32.3717 143.002 38.5569C143.002 39.0333 142.617 39.4182 142.14 39.4182C141.664 39.4182 141.279 39.0333 141.279 38.5569C141.279 33.3245 137.037 29.0826 131.805 29.0826C131.328 29.0826 130.943 28.6977 130.943 28.2213ZM134.389 37.6956C134.389 38.6457 133.616 39.4182 132.666 39.4182C131.716 39.4182 130.943 38.6457 130.943 37.6956C130.943 36.7454 131.716 35.973 132.666 35.973C133.616 35.973 134.389 36.7454 134.389 37.6956ZM131.805 30.8052C136.087 30.8052 139.556 34.2746 139.556 38.5569C139.556 39.0333 139.171 39.4182 138.695 39.4182C138.219 39.4182 137.834 39.0333 137.834 38.5569C137.834 35.2274 135.134 32.5278 131.805 32.5278C131.328 32.5278 130.943 32.1429 130.943 31.6665C130.943 31.1901 131.328 30.8052 131.805 30.8052Z" fill="white"/>
</g>
<g clip-path="url(#clip2_150_4947)">
<path d="M131.722 51.4216C131.012 51.4216 130.435 51.9981 130.435 52.7086C130.435 53.1135 130.625 53.4942 130.95 53.7382L136.784 58.1139C137.09 58.3418 137.508 58.3418 137.814 58.1139L143.648 53.7382C143.973 53.4942 144.163 53.1135 144.163 52.7086C144.163 51.9981 143.586 51.4216 142.876 51.4216H131.722ZM130.435 54.4246V60.0015C130.435 60.948 131.205 61.7175 132.151 61.7175H142.447C143.393 61.7175 144.163 60.948 144.163 60.0015V54.4246L138.329 58.8003C137.717 59.2588 136.881 59.2588 136.269 58.8003L130.435 54.4246Z" fill="white"/>
</g>
<g clip-path="url(#clip3_150_4947)">
<path d="M138.838 74.4378C139.535 74.5772 139.988 75.2556 139.849 75.9527L139.787 76.2583C139.645 76.9742 139.382 77.6553 139.015 78.2746H142.876C143.586 78.2746 144.163 78.8511 144.163 79.5616C144.163 80.24 143.64 80.795 142.975 80.8459C143.182 81.0738 143.305 81.3768 143.305 81.7066C143.305 82.334 142.854 82.8568 142.262 82.9694C142.38 83.1625 142.447 83.3931 142.447 83.6371C142.447 84.2082 142.074 84.6935 141.559 84.8597C141.578 84.9482 141.589 85.042 141.589 85.1385C141.589 85.8491 141.012 86.4255 140.302 86.4255H138.331C137.822 86.4255 137.326 86.2754 136.902 85.9938L135.87 85.3048C135.154 84.8275 134.725 84.0231 134.725 83.1625V82.1356V80.8486V80.181C134.725 79.3981 135.082 78.6607 135.69 78.1701L135.889 78.0119C136.599 77.4434 137.084 76.6444 137.261 75.7543L137.323 75.4486C137.463 74.7515 138.141 74.2984 138.838 74.4378ZM131.293 78.7036H133.009C133.484 78.7036 133.867 79.087 133.867 79.5616V85.5675C133.867 86.0421 133.484 86.4255 133.009 86.4255H131.293C130.818 86.4255 130.435 86.0421 130.435 85.5675V79.5616C130.435 79.087 130.818 78.7036 131.293 78.7036Z" fill="white"/>
</g>
<defs>
<clipPath id="clip0_150_4947">
<rect width="116.229" height="103.62" fill="white" transform="translate(24.6802 37.0204)"/>
</clipPath>
<clipPath id="clip1_150_4947">
<rect width="12.0582" height="12.0582" fill="white" transform="translate(130.944 27.36)"/>
</clipPath>
<clipPath id="clip2_150_4947">
<rect width="13.7278" height="10.2959" fill="white" transform="translate(130.435 51.4216)"/>
</clipPath>
<clipPath id="clip3_150_4947">
<rect width="13.7278" height="12.0118" fill="white" transform="translate(130.435 74.4137)"/>
</clipPath>
</defs>
</svg>
