<svg viewBox="0 0 168 168" fill="none" xmlns="http://www.w3.org/2000/svg">
<g clip-path="url(#clip0_150_4792)">
<rect width="168" height="168" rx="14.4" fill="#3079E2"/>
<g clip-path="url(#clip1_150_4792)">
<path d="M13.458 122.408C13.458 122.408 21.8181 135.032 34.5378 115.701C42.826 103.101 32.9808 94.1658 32.9808 94.1658C32.9808 94.1658 16.1409 96.13 16.1409 97.1122C16.1409 98.0943 13.458 122.408 13.458 122.408Z" fill="#1E1E1E"/>
<path d="M29.5558 107.987C29.5558 107.987 31.4242 149.836 71.6436 151.704C89.6333 152.543 101.563 85.3027 101.563 85.3027C101.563 85.3027 72.0987 71.4331 66.6371 71.2894C61.1755 71.1217 51.1866 73.2536 51.1866 73.2536C51.1866 73.2536 10.1528 47.1913 29.5558 107.987Z" fill="#1E1E1E"/>
<path d="M29.2684 80.8711C29.2684 80.8711 21.9384 76.2239 20.9084 69.2532C19.8783 62.2825 15.8779 41.7057 35.233 38.6396C52.7197 35.8608 61.0798 57.6833 55.9775 69.8042C52.5281 75.0502 45.3418 77.7091 45.3418 77.7091L29.2684 80.8711Z" fill="#1E1E1E"/>
<path d="M37.3647 65.7559C37.3647 65.7559 37.3408 75.6011 44.9104 77.6851C45.5811 77.7091 46.3955 77.1581 46.3955 77.1581L43.9522 68.295L37.3647 65.7559Z" fill="#FFD3B6"/>
<path d="M39.0178 72.6547C40.8384 73.1577 42.9703 73.3973 45.246 72.9182L43.9764 68.271L41.006 67.1212L37.5806 67.9357C37.7722 69.2771 38.1794 71.0018 39.0178 72.6547Z" fill="#1E1E1E"/>
<path d="M34.3225 64.0552C35.0171 67.0255 36.7658 73.9244 44.1916 72.1278C49.797 70.8103 52.8871 64.1031 51.0665 56.5335C50.4437 53.2997 50.3 52.7008 49.6532 51.0959C48.719 49.1795 46.7548 45.1792 42.3711 46.1852C34.6339 48.0297 32.5019 56.3179 34.3225 64.0552Z" fill="#FFD3B6"/>
<path d="M44.3115 56.3179C44.3115 56.3179 45.6051 56.8688 45.7009 57.5395C45.7488 57.8509 45.629 58.4977 44.6229 58.6175" stroke="#1E1E1E" stroke-width="0.239543" stroke-miterlimit="10" stroke-linecap="round" stroke-linejoin="round"/>
<path d="M24.5012 88.9437C24.9563 89.83 25.8426 90.0935 26.4894 89.4946L34.5381 82.1167C35.1609 81.5418 35.3046 80.3441 34.8495 79.4578L22.6327 55.8388C22.1776 54.9525 21.2913 54.689 20.6445 55.2878L12.5959 62.6658C11.9731 63.2407 11.8293 64.4384 12.2845 65.3247L24.5012 88.9437Z" fill="white"/>
<path d="M14.5363 69.7324C15.2789 70.8343 16.3808 72.8465 16.6203 73.0381L27.783 64.678C28.9089 63.7438 30.5857 63.9354 31.5199 65.0613C32.4541 66.1871 32.2625 67.864 31.1367 68.7982L30.8252 69.0617C31.9032 68.5107 33.2686 68.7742 34.083 69.7563C34.7538 70.5708 34.8496 71.6727 34.4184 72.583C35.0652 72.6788 35.3287 73.2537 35.7838 73.8046C36.5024 74.6909 36.0952 76.1761 35.5203 77.1103C35.9754 77.2541 36.3827 77.5176 36.6941 77.9008C37.5564 78.9548 37.3887 80.4879 36.3347 81.3502L29.0287 86.8597L25.0043 98.1183C25.0043 98.1183 16.6443 96.8008 12.3564 95.4354C13.8177 90.6445 15.6382 85.9734 15.6382 85.9734C15.6382 85.9734 13.0032 73.8286 14.5363 69.7324Z" fill="#FFD3B6"/>
<path d="M25.1958 73.1338L30.7772 69.0137" stroke="#1E1E1E" stroke-width="0.239543" stroke-miterlimit="10" stroke-linecap="round" stroke-linejoin="round"/>
<path d="M28.4536 76.4635C28.4536 76.4635 34.2266 72.559 34.3703 72.535" stroke="#1E1E1E" stroke-width="0.239543" stroke-miterlimit="10" stroke-linecap="round" stroke-linejoin="round"/>
<path d="M30.729 80.7034C30.729 80.7034 35.3282 77.1342 35.4959 77.0863" stroke="#1E1E1E" stroke-width="0.239543" stroke-miterlimit="10" stroke-linecap="round" stroke-linejoin="round"/>
<path d="M29.7232 89.5187C29.1483 89.3749 13.2187 87.0753 13.2187 87.0753C13.2187 87.0753 5.86471 118.527 15.686 124.612C23.04 129.187 27.4715 116.827 28.5255 107.94C29.6035 99.0285 29.7232 89.5187 29.7232 89.5187Z" fill="#1E1E1E"/>
<path d="M49.7972 51.4072C45.8447 53.1798 38.347 54.9525 33.9634 55.9106C33.6999 57.5635 33.652 59.3122 33.8436 61.1087C35.5444 61.1327 40.3832 59.8392 41.0778 59.5517C41.8683 59.2163 43.8326 57.5874 44.4554 57.0125C45.0782 56.4616 45.8447 56.749 46.9945 57.2281C47.7371 57.5395 49.7014 56.5335 50.971 55.7909C50.4679 53.3954 50.3002 52.6768 49.7972 51.4072Z" fill="#1E1E1E"/>
<path d="M36.9814 57.5634C37.1491 57.4676 40.7423 56.5813 40.7423 56.5813C40.7423 56.5813 40.0236 58.6174 39.0176 58.4737C38.0115 58.3779 36.9814 57.5634 36.9814 57.5634Z" fill="#FFD3B6"/>
<path d="M46.0361 55.1202C46.2038 55.0244 49.5095 53.8267 49.5095 53.8267C49.5095 53.8267 49.1981 55.5753 47.5932 56.1981C46.611 56.0784 46.0361 55.1202 46.0361 55.1202Z" fill="#FFD3B6"/>
<path d="M28.4299 89.5425C29.0288 89.3988 30.3463 89.3988 30.3463 89.3988C30.3463 89.3988 31.6638 109.808 27.3999 116.395" stroke="#1E1E1E" stroke-width="0.239543" stroke-miterlimit="10" stroke-linecap="round" stroke-linejoin="round"/>
<path d="M31.8073 119.174C30.7773 115.797 30.0347 108.61 30.0347 108.61" stroke="#1E1E1E" stroke-width="0.239543" stroke-miterlimit="10" stroke-linecap="round" stroke-linejoin="round"/>
</g>
<g clip-path="url(#clip2_150_4792)">
<path d="M147.349 19.2H73.6785C68.2426 19.2 63.8398 23.6027 63.8398 29.0386V168.24H65.8107V29.0386C65.8107 24.6994 69.3393 21.1709 73.6785 21.1709H147.349C151.688 21.1709 155.217 24.6994 155.217 29.0386V168.24H157.188V29.0386C157.172 23.6027 152.769 19.2 147.349 19.2Z" fill="white"/>
<path d="M147.349 21.1709H73.6783C69.3391 21.1709 65.8105 24.6995 65.8105 29.0386V168.24H68.4331V29.0386C68.4331 26.1458 70.7855 23.7935 73.6783 23.7935H89.8588V27.0677C89.8588 28.8797 91.3211 30.342 93.133 30.342H127.894C129.706 30.342 131.168 28.8797 131.168 27.0677V23.7935H147.349C150.242 23.7935 152.594 26.1458 152.594 29.0386V168.24H155.217V29.0386C155.217 24.6995 151.688 21.1709 147.349 21.1709ZM115.099 28.1326H105.912C105.181 28.1326 104.593 27.5446 104.593 26.8134C104.593 26.0823 105.181 25.4942 105.912 25.4942H115.099C115.83 25.4942 116.418 26.0823 116.418 26.8134C116.418 27.5446 115.83 28.1326 115.099 28.1326ZM122.808 28.2916C121.997 28.2916 121.33 27.624 121.33 26.8134C121.33 26.0028 121.997 25.3352 122.808 25.3352C123.618 25.3352 124.286 26.0028 124.286 26.8134C124.286 27.6399 123.618 28.2916 122.808 28.2916Z" fill="white"/>
<path d="M115.099 25.51H105.912C105.181 25.51 104.593 26.0981 104.593 26.8292C104.593 27.5604 105.181 28.1485 105.912 28.1485H115.099C115.831 28.1485 116.419 27.5604 116.419 26.8292C116.419 26.0981 115.831 25.51 115.099 25.51Z" fill="#3A3A3A"/>
<path d="M122.808 25.3511C121.998 25.3511 121.33 26.0186 121.33 26.8293C121.33 27.6399 121.998 28.3074 122.808 28.3074C123.619 28.3074 124.286 27.6399 124.286 26.8293C124.286 26.0027 123.619 25.3511 122.808 25.3511Z" fill="#3A3A3A"/>
<path d="M147.349 23.7935H131.168V27.0677C131.168 28.8797 129.706 30.3419 127.894 30.3419H93.133C91.321 30.3419 89.8588 28.8797 89.8588 27.0677V23.7935H73.6783C70.7855 23.7935 68.4331 26.1458 68.4331 29.0386V168H152.594V29.0386C152.594 26.1458 150.242 23.7935 147.349 23.7935Z" fill="#DAEEFF"/>
<rect width="42.24" height="10.08" rx="5.04" transform="matrix(-1 0 0 1 146.88 149.28)" fill="#FFCF1C"/>
<path d="M146.689 148.671C144.609 148.845 144.309 151.822 144.418 153.288L139.801 151.018C140.892 149.643 143.798 147.249 146.689 148.671Z" fill="#FFCF1C"/>
<rect x="74.3999" y="132" width="42.24" height="9.6" rx="4.8" fill="white"/>
<rect x="74.3999" y="117.6" width="22.56" height="9.6" rx="4.8" fill="white"/>
<path d="M74.581 116.879C76.5589 117.044 76.8446 119.875 76.7402 121.27L81.1311 119.111C80.0932 117.804 77.3301 115.527 74.581 116.879Z" fill="white"/>
<rect width="20.64" height="10.08" rx="5.04" transform="matrix(-1 0 0 1 146.88 99.84)" fill="#FFCF1C"/>
<rect width="50.88" height="10.08" rx="5.04" transform="matrix(-1 0 0 1 146.88 84.96)" fill="#FFCF1C"/>
<rect width="30.72" height="10.08" rx="5.04" transform="matrix(-1 0 0 1 146.88 70.5599)" fill="#FFCF1C"/>
<path d="M146.689 69.9507C144.609 70.1246 144.309 73.1017 144.418 74.5685L139.801 72.2977C140.892 70.923 143.798 68.529 146.689 69.9507Z" fill="#FFCF1C"/>
<rect x="74.3999" y="53.2799" width="49.44" height="9.6" rx="4.8" fill="white"/>
<rect x="74.3999" y="38.8995" width="35.52" height="9.42367" rx="4.71184" fill="white"/>
<path d="M74.581 38.1592C76.5589 38.3245 76.8446 41.1553 76.7402 42.55L81.1311 40.3908C80.0932 39.0837 77.3301 36.8073 74.581 38.1592Z" fill="white"/>
</g>
</g>
<defs>
<clipPath id="clip0_150_4792">
<rect width="168" height="168" rx="14.4" fill="white"/>
</clipPath>
<clipPath id="clip1_150_4792">
<rect width="91.0026" height="113.328" fill="white" transform="translate(10.5601 38.4)"/>
</clipPath>
<clipPath id="clip2_150_4792">
<rect width="93.12" height="148.8" fill="white" transform="translate(63.8398 19.2)"/>
</clipPath>
</defs>
</svg>
