<svg viewBox="0 0 169 168" fill="none" xmlns="http://www.w3.org/2000/svg">
<g clip-path="url(#clip0_150_4840)">
<rect x="0.399902" width="168" height="168" rx="14.4" fill="#F47E94"/>
<g clip-path="url(#clip1_150_4840)">
<path d="M135.136 142.272C135.136 145.2 132.784 147.552 129.856 147.552H36.8801C33.9521 147.552 31.6001 145.2 31.6001 142.272V26.4C31.6001 23.472 33.9521 21.12 36.8801 21.12H129.856C132.784 21.12 135.136 23.472 135.136 26.4V142.272Z" fill="#F5F5F5"/>
<path d="M129.856 21.12H36.8801C33.9521 21.12 31.6001 23.472 31.6001 26.4V36.144H135.136V26.4C135.136 23.472 132.736 21.12 129.856 21.12Z" fill="#555555"/>
<path d="M115.552 29.184C115.552 30.336 114.592 31.296 113.44 31.296C112.288 31.296 111.328 30.336 111.328 29.184C111.328 28.032 112.288 27.072 113.44 27.072C114.64 27.072 115.552 28.032 115.552 29.184Z" fill="#F5F5F5"/>
<path d="M122.944 29.184C122.944 30.336 121.984 31.296 120.832 31.296C119.68 31.296 118.72 30.336 118.72 29.184C118.72 28.032 119.68 27.072 120.832 27.072C121.984 27.072 122.944 28.032 122.944 29.184Z" fill="#F5F5F5"/>
<path d="M130.336 29.184C130.336 30.336 129.376 31.296 128.224 31.296C127.072 31.296 126.112 30.336 126.112 29.184C126.112 28.032 127.072 27.072 128.224 27.072C129.376 27.072 130.336 28.032 130.336 29.184Z" fill="#F5F5F5"/>
<path d="M128.368 118.848C128.368 120.624 126.928 122.112 125.104 122.112H41.5842C39.8082 122.112 38.3682 120.672 38.3682 118.848C38.3682 117.072 39.8082 115.584 41.5842 115.584H125.104C126.928 115.584 128.368 117.024 128.368 118.848Z" fill="#D7D7D7"/>
<path d="M128.368 128.928C128.368 130.704 126.928 132.192 125.104 132.192H41.5842C39.8082 132.192 38.3682 130.752 38.3682 128.928C38.3682 127.152 39.8082 125.664 41.5842 125.664H125.104C126.928 125.664 128.368 127.104 128.368 128.928Z" fill="#D7D7D7"/>
<path d="M128.368 139.008C128.368 140.784 126.928 142.272 125.104 142.272H41.5842C39.8082 142.272 38.3682 140.832 38.3682 139.008C38.3682 137.232 39.8082 135.744 41.5842 135.744H125.104C126.928 135.744 128.368 137.184 128.368 139.008Z" fill="#D7D7D7"/>
<path d="M128.368 55.152C128.368 57.792 126.208 59.952 123.568 59.952H104.464C101.824 59.952 99.6641 57.792 99.6641 55.152V54.192C99.6641 51.552 101.824 49.392 104.464 49.392H123.568C126.208 49.392 128.368 51.552 128.368 54.192V55.152Z" fill="#D7D7D7"/>
<path d="M102.88 72.48C104.683 72.48 106.144 71.0187 106.144 69.216C106.144 67.4134 104.683 65.952 102.88 65.952C101.078 65.952 99.6162 67.4134 99.6162 69.216C99.6162 71.0187 101.078 72.48 102.88 72.48Z" fill="#FF6B5F"/>
<path d="M128.368 69.216C128.368 70.992 126.928 72.48 125.104 72.48H112.912C111.136 72.48 109.648 71.04 109.648 69.216C109.648 67.44 111.088 65.952 112.912 65.952H125.104C126.928 65.952 128.368 67.44 128.368 69.216Z" fill="#D7D7D7"/>
<path d="M102.88 83.136C104.683 83.136 106.144 81.6747 106.144 79.872C106.144 78.0694 104.683 76.608 102.88 76.608C101.078 76.608 99.6162 78.0694 99.6162 79.872C99.6162 81.6747 101.078 83.136 102.88 83.136Z" fill="#66CECE"/>
<path d="M128.368 79.872C128.368 81.648 126.928 83.136 125.104 83.136H112.912C111.136 83.136 109.648 81.696 109.648 79.872C109.648 78.096 111.088 76.608 112.912 76.608H125.104C126.928 76.656 128.368 78.096 128.368 79.872Z" fill="#D7D7D7"/>
<path d="M102.88 93.84C104.683 93.84 106.144 92.3787 106.144 90.576C106.144 88.7734 104.683 87.312 102.88 87.312C101.078 87.312 99.6162 88.7734 99.6162 90.576C99.6162 92.3787 101.078 93.84 102.88 93.84Z" fill="#7FDE6E"/>
<path d="M128.368 90.576C128.368 92.352 126.928 93.84 125.104 93.84H112.912C111.136 93.84 109.648 92.4 109.648 90.576C109.648 88.8 111.088 87.312 112.912 87.312H125.104C126.928 87.312 128.368 88.8 128.368 90.576Z" fill="#D7D7D7"/>
<path d="M102.88 104.496C104.683 104.496 106.144 103.035 106.144 101.232C106.144 99.4294 104.683 97.968 102.88 97.968C101.078 97.968 99.6162 99.4294 99.6162 101.232C99.6162 103.035 101.078 104.496 102.88 104.496Z" fill="#FACE00"/>
<path d="M128.368 101.232C128.368 103.008 126.928 104.496 125.104 104.496H112.912C111.136 104.496 109.648 103.056 109.648 101.232C109.648 99.456 111.088 97.968 112.912 97.968H125.104C126.928 98.016 128.368 99.456 128.368 101.232Z" fill="#D7D7D7"/>
<path d="M88.768 105.504C88.768 108.144 86.608 110.304 83.968 110.304H47.968C45.328 110.304 43.168 108.144 43.168 105.504V48.144C43.168 45.504 45.328 43.344 47.968 43.344H83.968C86.608 43.344 88.768 45.504 88.768 48.144V105.504Z" fill="white"/>
<path d="M81.184 78.5759C77.056 77.0879 75.472 75.6479 75.472 75.6479H56.464C56.464 75.6479 54.88 77.0399 50.752 78.5759C49.264 79.1039 45.664 81.3599 43.168 82.8959V105.504C43.168 108.144 45.328 110.304 47.968 110.304H83.968C86.608 110.304 88.768 108.144 88.768 105.504V83.184C86.368 81.744 82.816 79.1519 81.184 78.5759Z" fill="#565CB2"/>
<path d="M55.6001 76.272L65.9681 108.864L76.4321 76.368L75.3761 74.4L56.5601 74.208L55.6001 76.272Z" fill="white"/>
<path d="M65.9679 108.864L68.3199 101.712L67.1199 85.1521L68.3679 80.7841H63.0879L64.4799 85.0081L63.6639 101.568L65.9679 108.864Z" fill="#565CB2"/>
<path d="M52.096 78.288C52.096 78.48 51.52 90.048 51.52 90.048L54.928 90.864L54.256 96.384L65.968 108.864" stroke="#1E1E1E" stroke-width="0.48" stroke-miterlimit="10" stroke-linecap="round" stroke-linejoin="round"/>
<path d="M79.936 78.288C79.936 78.48 80.512 90.048 80.512 90.048L77.104 90.864L77.776 96.384L66.064 108.864" stroke="#1E1E1E" stroke-width="0.48" stroke-miterlimit="10" stroke-linecap="round" stroke-linejoin="round"/>
<path d="M57.1359 66C57.1359 66 57.0399 73.344 56.4639 74.4L66.0159 77.856L75.3759 74.4C74.7999 73.392 74.7039 66 74.7039 66H57.1359Z" fill="#FFD3B6"/>
<path d="M75.0878 73.104C74.7518 70.704 74.7038 66 74.7038 66H72.7838L60.2558 69.84C60.2078 69.84 64.4318 77.616 75.0878 73.104Z" fill="#FBAB7D"/>
<path d="M66.0639 48.912C72.1119 48.912 76.2399 52.656 75.9999 61.392C75.9999 68.016 72.1119 72.864 66.0639 72.864H65.8239C59.7759 72.864 55.8879 68.016 55.8879 61.392C55.6479 52.656 59.7759 48.912 65.8239 48.912H66.0639Z" fill="#FFD3B6"/>
<path d="M63.2798 59.904C63.2798 60.384 62.9438 60.768 62.5598 60.768C62.1278 60.768 61.8398 60.384 61.8398 59.904C61.8398 59.424 62.1758 59.04 62.5598 59.04C62.9438 59.04 63.2798 59.424 63.2798 59.904Z" fill="#252628"/>
<path d="M70.336 59.904C70.336 60.384 70 60.768 69.616 60.768C69.184 60.768 68.896 60.384 68.896 59.904C68.896 59.424 69.232 59.04 69.616 59.04C70 59.04 70.336 59.424 70.336 59.904Z" fill="#252628"/>
<path d="M65.488 60.7201C65.488 60.7201 64.672 61.8721 64.96 62.2561C65.2 62.5921 65.776 62.7841 65.776 62.7841" stroke="#1E1E1E" stroke-width="0.48" stroke-miterlimit="10" stroke-linecap="round" stroke-linejoin="round"/>
<path d="M63.4239 64.896C63.4239 64.896 63.3759 66.864 65.9679 66.864C68.5599 66.864 68.7519 64.896 68.7519 64.896H63.4239Z" fill="white"/>
<path d="M68.416 56.88C68.416 56.88 69.376 56.544 70.624 56.88" stroke="#1E1E1E" stroke-width="0.72" stroke-miterlimit="10" stroke-linecap="round" stroke-linejoin="round"/>
<path d="M61.2158 56.88C61.2158 56.88 62.1758 56.544 63.4238 56.88" stroke="#1E1E1E" stroke-width="0.72" stroke-miterlimit="10" stroke-linecap="round" stroke-linejoin="round"/>
<path d="M58.48 85.104L66.016 78L73.408 85.968" stroke="#1E1E1E" stroke-width="0.48" stroke-miterlimit="10" stroke-linecap="round" stroke-linejoin="round"/>
<path d="M56.3681 56.592C56.6081 56.592 68.2721 54.624 69.1841 50.256C69.1841 50.256 72.8321 58.368 75.5201 58.704C78.1601 59.088 78.0161 58.128 78.0161 58.128C78.0161 58.128 80.7521 45.264 69.1361 45.792C59.6321 42.768 49.7921 46.608 54.1121 58.464L56.0321 58.608L56.3681 56.592Z" fill="#252628"/>
<path d="M56.3199 58.704C56.3199 58.704 54.5439 56.88 53.1519 58.704C51.6159 60.672 54.1599 64.752 56.3199 63.024C56.3199 62.688 56.3199 58.704 56.3199 58.704Z" fill="#FFD3B6"/>
<path d="M75.52 58.704C75.52 58.704 77.296 56.88 78.688 58.704C80.224 60.672 77.68 64.752 75.52 63.024C75.52 62.688 75.52 58.704 75.52 58.704Z" fill="#FFD3B6"/>
</g>
<g clip-path="url(#clip2_150_4840)">
<ellipse cx="114.4" cy="103.68" rx="20.88" ry="20.64" fill="#F5F5F5"/>
<path d="M100.487 100.027C102.675 100.027 104.448 98.2534 104.448 96.0656C104.448 93.8779 102.675 92.1044 100.487 92.1044C98.2994 92.1044 96.5259 93.8779 96.5259 96.0656C96.5259 98.2534 98.2994 100.027 100.487 100.027Z" fill="#7FDE6E"/>
<path d="M131.42 96.0656C131.42 98.221 129.672 100.027 127.458 100.027H112.662C110.507 100.027 108.701 98.2793 108.701 96.0656C108.701 93.9102 110.448 92.1044 112.662 92.1044H127.458C129.672 92.1044 131.42 93.9102 131.42 96.0656Z" fill="#D7D7D7"/>
<path d="M100.487 112.959C102.675 112.959 104.448 111.186 104.448 108.998C104.448 106.81 102.675 105.037 100.487 105.037C98.2994 105.037 96.5259 106.81 96.5259 108.998C96.5259 111.186 98.2994 112.959 100.487 112.959Z" fill="#FACE00"/>
<path d="M131.42 108.998C131.42 111.153 129.672 112.959 127.458 112.959H112.662C110.507 112.959 108.701 111.212 108.701 108.998C108.701 106.843 110.448 105.037 112.662 105.037H127.458C129.672 105.095 131.42 106.843 131.42 108.998Z" fill="#D7D7D7"/>
<path opacity="0.31" d="M136.125 96.5703C132.067 84.5736 119.052 78.1381 107.055 82.1962C95.0584 86.2543 88.6229 99.2693 92.681 111.266C96.7391 123.263 109.754 129.698 121.751 125.64C133.748 121.582 140.183 108.567 136.125 96.5703Z" fill="white"/>
<path d="M169.201 165.33C168.967 165.901 168.586 166.424 168.077 166.859C166.363 168.292 163.805 168.058 162.372 166.343L128.239 125.405C126.805 123.69 127.04 121.133 128.754 119.699C130.468 118.266 133.026 118.501 134.459 120.215L168.592 161.154C169.591 162.359 169.775 163.97 169.201 165.33Z" fill="#1E1E1E"/>
<path d="M137.971 113.956C132.444 126.969 117.368 133.053 104.365 127.506C91.3612 121.96 85.2868 106.913 90.814 93.9C96.3412 80.8867 111.417 74.8024 124.42 80.3492C137.424 85.8961 143.518 100.952 137.971 113.956ZM95.7789 96.0116C91.4097 106.286 96.2214 118.182 106.476 122.541C116.751 126.911 128.647 122.099 133.006 111.844C137.375 101.569 132.564 89.6737 122.309 85.3142C112.034 80.9449 100.148 85.7369 95.7789 96.0116Z" fill="#1E1E1E"/>
<path d="M138.639 131.772C135.984 134.459 135.697 138.77 138.02 141.397L162.207 168.896C164.587 171.575 168.705 171.453 171.343 168.623L171.405 168.543C173.938 165.828 174.12 161.632 171.844 159.08L147.594 131.66C145.284 129.066 141.283 129.107 138.639 131.772Z" fill="#565CB2"/>
</g>
</g>
<defs>
<clipPath id="clip0_150_4840">
<rect x="0.399902" width="168" height="168" rx="14.4" fill="white"/>
</clipPath>
<clipPath id="clip1_150_4840">
<rect width="103.68" height="127.68" fill="white" transform="translate(31.6001 21.12)"/>
</clipPath>
<clipPath id="clip2_150_4840">
<rect width="66.3756" height="111.095" fill="white" transform="translate(73.3599 129.099) rotate(-63.689)"/>
</clipPath>
</defs>
</svg>
